<svg width="110" height="87" viewBox="0 0 110 87" fill="none" xmlns="http://www.w3.org/2000/svg">
<ellipse cx="44" cy="43.5" rx="41" ry="40.5" fill="white"/>
<path d="M84.943 86.9154C88.0329 86.9154 90.8526 85.1412 92.1802 82.3631L108.194 48.8155C109.792 45.4538 109.803 41.5667 108.205 38.205L92.1685 4.55238C90.8409 1.77426 88.0212 0 84.9313 0H43.7521C19.5968 0 0 19.4585 0 43.4694C0 43.4927 0 43.5161 0 43.5394C0.293717 67.492 16.1662 86.9388 40.2628 86.9388H84.943V86.9154ZM80.878 43.4577C80.878 63.8267 64.2536 80.3437 43.7521 80.3437C23.2507 80.3437 6.62626 63.8267 6.62626 43.4577C6.62626 23.0887 23.2507 6.57177 43.7521 6.57177C64.2536 6.57177 80.878 23.0887 80.878 43.4577Z" fill="#106EAF"/>
</svg>
