<svg width="592" height="361" viewBox="0 0 592 361" fill="none" xmlns="http://www.w3.org/2000/svg">
<path d="M313.77 166.41C314.034 166.41 314.166 166.41 314.43 166.278L473.058 102.498C473.454 102.367 473.849 101.971 473.981 101.576C474.113 101.181 474.113 100.654 473.981 100.258C467.52 86.0263 459.345 72.4532 449.719 60.0662C448.928 59.1438 448.136 58.0895 447.345 57.1671C446.818 56.5082 446.29 55.9811 445.763 55.3222L509.32 4.58807H587.381V0.898315H508.792L507.606 1.29364L443.389 52.5549C430.863 38.0594 416.358 25.6724 400.139 15.3938C399.744 15.1302 399.216 15.1302 398.821 15.1302C398.425 15.262 398.029 15.5256 397.766 15.9209L312.32 163.906C311.924 164.565 312.056 165.356 312.452 165.883C312.847 166.147 313.243 166.41 313.77 166.41ZM399.744 19.0835C416.754 30.021 431.786 43.5941 444.576 59.2755C445.367 60.198 446.159 61.1204 446.818 62.1746C456.048 73.9028 463.828 86.5534 470.025 99.9946L317.594 161.271L399.744 19.0835Z" fill="#106EAF"/>
<path d="M445.104 306.489C445.763 305.699 446.554 304.776 447.214 303.986C448.005 303.063 448.796 302.009 449.587 301.087C459.213 288.699 467.52 275.258 473.849 260.895C473.981 260.499 473.981 259.972 473.849 259.577C473.718 259.181 473.322 258.786 472.926 258.654L314.298 194.874C313.639 194.611 312.847 194.742 312.452 195.27C311.924 195.797 311.924 196.587 312.32 197.246L397.766 345.232C398.03 345.627 398.425 345.891 398.821 346.022C398.953 346.022 399.084 346.022 399.216 346.022C399.48 346.022 399.876 345.891 400.139 345.759C416.094 335.612 430.335 323.357 442.73 309.257L506.815 360.386L508.001 360.781H586.59V357.092H508.529L445.104 306.489ZM399.744 342.069L317.594 199.882L470.157 261.026C463.96 274.468 456.18 287.25 446.95 298.846C446.159 299.769 445.499 300.691 444.708 301.745C431.918 317.559 416.754 331 399.744 342.069Z" fill="#106EAF"/>
<path d="M491.123 178.666C490.859 156.791 487.167 135.443 479.915 115.017C479.783 114.622 479.387 114.227 478.992 114.095C478.596 113.963 478.069 113.831 477.673 114.095L316.012 179.061C315.353 179.324 314.957 179.983 314.957 180.642C314.957 181.301 315.353 181.96 316.012 182.224L477.673 247.19C477.937 247.321 478.069 247.321 478.332 247.321C478.596 247.321 478.86 247.321 478.992 247.19C479.387 247.058 479.783 246.662 479.915 246.267C487.167 225.842 490.991 204.494 491.123 182.619H591.073V178.929L491.123 178.666ZM487.695 182.355C487.563 203.176 484.002 223.733 477.278 243.236L321.154 180.642L477.278 117.916C484.002 137.419 487.563 157.977 487.695 178.797C487.695 179.456 487.695 179.983 487.695 180.642C487.695 181.169 487.695 181.828 487.695 182.355Z" fill="#106EAF"/>
<path d="M450.906 54.3998C450.906 58.0896 447.873 61.1205 444.181 61.1205C440.489 61.1205 437.456 58.0896 437.456 54.3998C437.456 50.7101 440.489 47.6792 444.181 47.6792C447.873 47.5474 450.906 50.5783 450.906 54.3998Z" fill="#FFD700"/>
<path d="M496.265 180.247C496.265 183.937 493.232 186.968 489.54 186.968C485.848 186.968 482.815 183.937 482.815 180.247C482.815 176.557 485.848 173.526 489.54 173.526C493.232 173.526 496.265 176.557 496.265 180.247Z" fill="#FFD700"/>
<path d="M449.85 307.544C449.85 311.234 446.817 314.264 443.125 314.264C439.433 314.264 436.4 311.234 436.4 307.544C436.4 303.854 439.433 300.823 443.125 300.823C446.817 300.823 449.85 303.854 449.85 307.544Z" fill="#FFD700"/>
<path d="M295.969 46.2296C371.393 46.2296 432.445 107.242 432.445 182.619C432.445 257.995 371.393 319.008 295.969 319.008C220.545 319.008 159.493 257.995 159.493 182.619C159.493 107.242 220.545 46.2296 295.969 46.2296Z" stroke="black" stroke-width="0.76239" stroke-miterlimit="1.3558"/>
<path d="M277.992 195.27C277.729 195.27 277.597 195.27 277.333 195.401L118.705 259.182C118.309 259.313 117.913 259.709 117.782 260.104C117.65 260.499 117.65 261.026 117.782 261.422C124.243 275.654 132.418 289.227 142.044 301.614C142.835 302.536 143.626 303.59 144.417 304.513C144.945 305.172 145.472 305.699 146 306.358L82.4429 357.092L4.38138 357.092V360.782L82.9704 360.782L84.1571 360.386L148.373 309.125C160.9 323.62 175.405 336.008 191.624 346.286C192.019 346.55 192.547 346.55 192.942 346.55C193.338 346.418 193.733 346.154 193.997 345.759L279.443 197.773C279.838 197.115 279.707 196.324 279.311 195.797C278.915 195.533 278.52 195.27 277.992 195.27ZM192.019 342.596C175.009 331.659 159.977 318.086 147.186 302.404C146.395 301.482 145.604 300.56 144.945 299.505C135.715 287.777 127.935 275.127 121.737 261.685L274.168 200.409L192.019 342.596Z" fill="#106EAF"/>
<path d="M146.659 55.1907C146 55.9814 145.208 56.9038 144.549 57.6945C143.758 58.6169 142.967 59.6711 142.176 60.5935C132.55 72.9806 124.243 86.4218 117.913 100.786C117.781 101.181 117.781 101.708 117.913 102.103C118.045 102.499 118.441 102.894 118.836 103.026L277.465 166.806C278.124 167.069 278.915 166.938 279.311 166.411C279.838 165.883 279.838 165.093 279.443 164.434L193.997 16.4482C193.733 16.0529 193.338 15.7894 192.942 15.6576C192.81 15.6576 192.678 15.6576 192.546 15.6576C192.283 15.6576 191.887 15.7894 191.623 15.9211C175.668 26.068 161.427 38.3232 149.032 52.4234L84.9481 1.29387L83.7613 0.89856H5.17239V4.5883H83.2339L146.659 55.1907ZM192.019 19.6109L274.168 161.798L121.605 100.654C127.803 87.2125 135.583 74.4301 144.813 62.8338C145.604 61.9113 146.263 60.9889 147.054 59.9347C159.845 44.1214 175.009 30.6802 192.019 19.6109Z" fill="#106EAF"/>
<path d="M100.64 183.015C100.904 204.89 104.596 226.237 111.848 246.663C111.98 247.058 112.375 247.453 112.771 247.585C113.167 247.717 113.694 247.849 114.09 247.585L275.751 182.619C276.41 182.356 276.806 181.697 276.806 181.038C276.806 180.379 276.41 179.72 275.751 179.457L114.09 114.49C113.826 114.359 113.694 114.359 113.43 114.359C113.167 114.359 112.903 114.359 112.771 114.49C112.375 114.622 111.98 115.018 111.848 115.413C104.596 135.838 100.772 157.186 100.64 179.061H0.689362V182.751L100.64 183.015ZM104.068 179.325C104.2 158.504 107.76 137.947 114.485 118.444L270.608 181.038L114.485 243.764C107.76 224.261 104.2 203.704 104.068 182.883C104.068 182.224 104.068 181.697 104.068 181.038C104.068 180.511 104.068 179.852 104.068 179.325Z" fill="#106EAF"/>
<path d="M140.456 307.083C140.456 303.393 143.489 300.363 147.181 300.363C150.873 300.363 153.906 303.393 153.906 307.083C153.906 310.773 150.873 313.804 147.181 313.804C143.489 313.936 140.456 310.905 140.456 307.083Z" fill="#FFD700"/>
<path d="M95.4975 181.433C95.4975 177.743 98.5303 174.712 102.222 174.712C105.914 174.712 108.947 177.743 108.947 181.433C108.947 185.123 105.914 188.154 102.222 188.154C98.5303 188.154 95.4975 185.123 95.4975 181.433Z" fill="#FFD700"/>
<path d="M141.912 54.1364C141.912 50.4467 144.945 47.4158 148.637 47.4158C152.33 47.4158 155.362 50.4467 155.362 54.1364C155.362 57.8262 152.33 60.8571 148.637 60.8571C144.945 60.8571 141.912 57.8262 141.912 54.1364Z" fill="#FFD700"/>
<path d="M295.794 315.451C220.369 315.451 159.318 254.438 159.318 179.061C159.318 103.685 220.369 42.6721 295.794 42.6721C371.218 42.6721 432.27 103.685 432.27 179.061C432.27 254.438 371.218 315.451 295.794 315.451Z" stroke="black" stroke-width="0.76239" stroke-miterlimit="1.3558"/>
</svg>
