<svg width="33" height="37" viewBox="0 0 33 37" fill="none" xmlns="http://www.w3.org/2000/svg">
<path d="M8.11672 9.54638C8.11672 12.7814 9.48307 16.1129 11.3265 19.6706H7.36496H7.36484H7.36471H7.36459H7.36446H7.36434H7.36421H7.36409H7.36396H7.36383H7.36371H7.36358H7.36345H7.36333H7.3632H7.36307H7.36295H7.36282H7.36269H7.36256H7.36244H7.36231H7.36218H7.36205H7.36192H7.36179H7.36167H7.36154H7.36141H7.36128H7.36115H7.36102H7.36089H7.36076H7.36063H7.3605H7.36037H7.36024H7.36011H7.35998H7.35985H7.35972H7.35959H7.35945H7.35932H7.35919H7.35906H7.35893H7.3588H7.35866H7.35853H7.3584H7.35827H7.35813H7.358H7.35787H7.35773H7.3576H7.35747H7.35733H7.3572H7.35707H7.35693H7.3568H7.35666H7.35653H7.35639H7.35626H7.35612H7.35599H7.35585H7.35572H7.35558H7.35545H7.35531H7.35517H7.35504H7.3549H7.35477H7.35463H7.35449H7.35436H7.35422H7.35408H7.35394H7.35381H7.35367H7.35353H7.35339H7.35326H7.35312H7.35298H7.35284H7.3527H7.35257H7.35243H7.35229H7.35215H7.35201H7.35187H7.35173H7.35159H7.35145H7.35131H7.35117H7.35103H7.35089H7.35075H7.35061H7.35047H7.35033H7.35019H7.35005H7.34991H7.34977H7.34963H7.34949H7.34934H7.3492H7.34906H7.34892H7.34878H7.34863H7.34849H7.34835H7.34821H7.34806H7.34792H7.34778H7.34764H7.34749H7.34735H7.34721H7.34706H7.34692H7.34678H7.34663H7.34649H7.34634H7.3462H7.34606H7.34591H7.34577H7.34562H7.34548H7.34533H7.34519H7.34504H7.3449H7.34475H7.34461H7.34446H7.34432H7.34417H7.34402H7.34388H7.34373H7.34359H7.34344H7.34329H7.34315H7.343H7.34285H7.34271H7.34256H7.34241H7.34226H7.34212H7.34197H7.34182H7.34167H7.34153H7.34138H7.34123H7.34108H7.34093H7.34079H7.34064H7.34049H7.34034H7.34019H7.34004H7.33989H7.33974H7.33959H7.33945H7.3393H7.33915H7.339H7.33885H7.3387H7.33855H7.3384H7.33825H7.3381H7.33795H7.3378H7.33765H7.3375H7.33734H7.33719H7.33704H7.33689H7.33674H7.33659H7.33644H7.33629H7.33614H7.33598H7.33583H7.33568H7.33553H7.33538H7.33522H7.33507H7.33492H7.33477H7.33462H7.33446H7.33431H7.33416H7.334H7.33385H7.3337H7.33355H7.33339H7.33324H7.33309H7.33293H7.33278H7.33263H7.33247H7.33232H7.33216H7.33201H7.33186H7.3317H7.33155H7.33139H7.33124H7.33108H7.33093H7.33077H7.33062H7.33047H7.33031H7.33015H7.33H7.32984H7.32969H7.32953H7.32938H7.32922H7.32907H7.32891H7.32876H7.3286H7.32844H7.32829H7.32813H7.32798H7.32782H7.32766H7.32751H7.32735H7.32719H7.32704H7.32688H7.32672H7.32657H7.32641H7.32625H7.3261H7.32594H7.32578H7.32562H7.32547H7.32531H7.32515H7.32499H7.32484H7.32468H7.32452H7.32436H7.3242H7.32405H7.32389H7.32373H7.32357H7.32341H7.32325H7.3231H7.32294H7.32278H7.32262H7.32246H7.3223H7.32214H7.32198H7.32183H7.32167H7.32151H7.32135H7.32119H7.32103H7.32087H7.32071H7.32055H7.32039H7.32023H7.32007H7.31991H7.31975H7.31959H7.31943H7.31927H7.31911H7.31895H7.31879H7.31863H7.31847H7.31831H7.31815H7.31799H7.31783H7.31767H7.31751H7.31735H7.31718H7.31702H7.31686H7.3167H7.31654H7.31638H7.31622H7.31606H7.3159H7.31573H7.31557H7.31541H7.31525H7.31509H7.31493H7.31476H7.3146H7.31444H7.31428H7.31412H7.31395H7.31379H7.31363H7.31347H7.31331H7.31314H7.31298H7.31282H7.31266H7.31249H7.31233H7.31217H7.31201H7.31184H7.31168H7.31152H7.31136H7.31119H7.31103H7.31087H7.3107H7.31054H7.31038H7.31022H7.31005H7.30989H7.30973H7.30956H7.3094H7.30924H7.30907H7.30891H7.30875H7.30858H7.30842H7.30825H7.30809H7.30793H7.30776H7.3076H7.30744H7.30727H7.30711H7.30694H7.30678H7.30662H7.30645H7.30629H7.30612H7.30596H7.3058H7.30563H7.30547H7.3053H7.30514H7.30497H7.30481H7.30464H7.30448H7.30432H7.30415H7.30399H7.30382H7.30366H7.30349H7.30333H7.30316H7.303H7.30283H7.30267H7.3025H7.30234H7.30217H7.30201H7.30184H7.30168H7.30151H7.30135H7.30118H7.30102H7.30085H7.30069H7.30052H7.30036H7.30019H7.30003H7.29986H7.2997H7.29953H7.29937H7.2992H7.29904H7.29887H7.2987H7.29854H7.29837H7.29821H7.29804H7.29788H7.29771H7.29754H7.29738H7.29721H7.29705H7.29688H7.29672H7.29655H7.29639H7.29622H7.29605H7.29589H7.29572H7.29556H7.29539H7.29522H7.29506H7.29489H7.29473H7.29456H7.29439H7.29423H7.29406H7.2939H7.29373H7.29356H7.2934H7.29323H7.29307H7.2929H7.29273H7.29257H7.2924H7.29224H7.29207H7.2919H7.29174H7.29157H7.29141H7.29124H7.29107H7.29091H7.29074H7.29057H7.29041H7.29024H7.29008H7.28991H7.28974H7.28958H7.28941H7.28924H7.28908H7.28891H7.28875H7.28858H7.28841H7.28825H7.28808H7.28791H7.28775H7.28758H7.28742H7.28725H7.28708H7.28692V19.6695L7.27638 19.6718C7.12556 19.7043 6.9981 19.8101 6.94221 19.9572C6.9422 19.9572 6.94219 19.9572 6.94217 19.9572L0.98258 35.4212C0.982539 35.4213 0.982498 35.4214 0.982457 35.4215C0.926704 35.5605 0.942911 35.7231 1.03003 35.8529C1.11663 35.9819 1.25276 36.0572 1.40632 36.0495H31.595C31.7467 36.0495 31.8822 35.9756 31.9691 35.8541C32.0579 35.7302 32.0728 35.5669 32.0178 35.4221L32.0177 35.4219L26.0577 19.957L26.0578 19.957L26.0572 19.9557C25.986 19.7856 25.8267 19.6706 25.635 19.6706H21.6736C23.5169 16.1201 24.8832 12.7887 24.8833 9.5466C24.9047 4.72314 21.1367 0.95 16.5106 0.95C11.8846 0.95 8.11672 4.72313 8.11672 9.54638ZM11.7206 20.3852C12.2882 21.4522 12.8906 22.5386 13.507 23.6504C14.3691 25.2052 15.2585 26.8094 16.1185 28.4789L16.119 28.4798C16.1985 28.6264 16.35 28.7167 16.5106 28.7167C16.6713 28.7167 16.8228 28.6264 16.9023 28.4798L16.9028 28.4789C17.6474 27.0334 18.4169 25.6369 19.1707 24.2788C19.2641 24.1106 19.3572 23.9431 19.4499 23.7761C20.0906 22.6229 20.7163 21.4969 21.301 20.3923C21.386 20.5128 21.5261 20.5836 21.677 20.5773H25.3382L27.9674 27.3958H24.4501H24.45H24.4499H24.4498H24.4496H24.4495H24.4494H24.4493H24.4491H24.449H24.4489H24.4488H24.4486H24.4485H24.4484H24.4483H24.4481H24.448H24.4479H24.4477H24.4476H24.4475H24.4474H24.4472H24.4471H24.447H24.4468H24.4467H24.4466H24.4465H24.4463H24.4462H24.4461H24.4459H24.4458H24.4457H24.4456H24.4454H24.4453H24.4452H24.445H24.4449H24.4448H24.4446H24.4445H24.4444H24.4442H24.4441H24.444H24.4438H24.4437H24.4436H24.4435H24.4433H24.4432H24.4431H24.4429H24.4428H24.4427H24.4425H24.4424H24.4423H24.4421H24.442H24.4419H24.4417H24.4416H24.4415H24.4413H24.4412H24.441H24.4409H24.4408H24.4406H24.4405H24.4404H24.4402H24.4401H24.44H24.4398H24.4397H24.4396H24.4394H24.4393H24.4392H24.439H24.4389H24.4387H24.4386H24.4385H24.4383H24.4382H24.4381H24.4379H24.4378H24.4377H24.4375H24.4374H24.4372H24.4371H24.437H24.4368H24.4367H24.4366H24.4364H24.4363H24.4361H24.436H24.4359H24.4357H24.4356H24.4354H24.4353H24.4352H24.435H24.4349H24.4347H24.4346H24.4345H24.4343H24.4342H24.434H24.4339H24.4338H24.4336H24.4335H24.4333H24.4332H24.4331H24.4329H24.4328H24.4326H24.4325H24.4324H24.4322H24.4321H24.4319H24.4318H24.4317H24.4315H24.4314H24.4312H24.4311H24.431H24.4308H24.4307H24.4305H24.4304H24.4302H24.4301H24.43H24.4298H24.4297H24.4295H24.4294H24.4293H24.4291H24.429H24.4288H24.4287H24.4285H24.4284H24.4283H24.4281H24.428H24.4278H24.4277H24.4275H24.4274H24.4273H24.4271H24.427H24.4268H24.4267H24.4265H24.4264H24.4263H24.4261H24.426H24.4258H24.4257H24.4255H24.4254H24.4252H24.4251H24.425H24.4248H24.4247H24.4245H24.4244H24.4242H24.4241H24.424H24.4238H24.4237H24.4235H24.4234H24.4232H24.4231H24.4229H24.4228H24.4227H24.4225H24.4224H24.4222H24.4221H24.4219H24.4218H24.4216H24.4215H24.4214H24.4212H24.4211H24.4209H24.4208H24.4206H24.4205H24.4203H24.4202H24.42H24.4199H24.4198H24.4196H24.4195H24.4193H24.4192H24.419H24.4189H24.4187H24.4186H24.4184H24.4183H24.4182H24.418H24.4179H24.4177H24.4176H24.4174H24.4173H24.4171H24.417H24.4168H24.4167H24.4166H24.4164H24.4163H24.4161H24.416H24.4158H24.4157H24.4155H24.4154H24.4152H24.4151H24.415H24.4148H24.4147H24.4145H24.4144H24.4142H24.4141H24.4139H24.4138H24.4136H24.4135H24.4134H24.4132H24.4131H24.4129H24.4128H24.4126H24.4125H24.4123H24.4122H24.412H24.4119H24.4118H24.4116H24.4115H24.4113H24.4112H24.411H24.4109H24.4107H24.4106H24.4104H24.4103H24.4102H24.41H24.4099H24.4097H24.4096H24.4094H24.4093H24.4091H24.409H24.4089H24.4087H24.4086H24.4084H24.4083H24.4081H24.408H24.4078H24.4077H24.4075H24.4074H24.4073H24.4071H24.407H24.4068H24.4067H24.4065H24.4064H24.4062H24.4061H24.406H24.4058H24.4057H24.4055H24.4054H24.4052H24.4051H24.4049H24.4048H24.4047H24.4045H24.4044H24.4042H24.4041H24.4039H24.4038H24.4037H24.4035H24.4034H24.4032H24.4031H24.4029H24.4028H24.4027H24.4025H24.4024H24.4022H24.4021H24.4019H24.4018H24.4016H24.4015H24.4014H24.4012H24.4011H24.4009H24.4008H24.4007H24.4005H24.4004H24.4002H24.4001H24.3999H24.3998H24.3997H24.3995H24.3994H24.3992H24.3991H24.3989H24.3988H24.3987H24.3985H24.3984H24.3982H24.3981H24.398H24.3978H24.3977H24.3975H24.3974H24.3972H24.3971H24.397H24.3968H24.3967H24.3965H24.3964H24.3963H24.3961H24.396H24.3958H24.3957H24.3956H24.3954H24.3953H24.3951H24.395H24.3949H24.3947H24.3946H24.3944H24.3943H24.3942H24.394H24.3939H24.3938H24.3936H24.3935H24.3933H24.3932H24.3931H24.3929H24.3928H24.3926H24.3925H24.3924H24.3922H24.3921H24.392H24.3918H24.3917H24.3915H24.3914H24.3913H24.3911H24.391H24.3909H24.3907H24.3906H24.3904H24.3903H24.3902H24.39H24.3899H24.3898H24.3896H24.3895H24.3894H24.3892H24.3891H24.389H24.3888H24.3887H24.3886H24.3884H24.3883H24.3881H24.388H24.3879H24.3877H24.3876H24.3875H24.3873H24.3872H24.3871H24.3869H24.3868H24.3867H24.3865H24.3864H24.3863H24.3861H24.386H24.3859H24.3857H24.3856H24.3855H24.3854H24.3852H24.3851H24.385H24.3848H24.3847H24.3846H24.3844H24.3843H24.3842H24.384H24.3839H24.3838H24.3836H24.3835H24.3834H24.3833H24.3831H24.383H24.3829H24.3827H24.3826H24.3825H24.3824H24.3822H24.3821H24.382H24.3818H24.3817H24.3816H24.3815H24.3813H24.3812H24.3811H24.381H24.3808H24.3807H24.3806H24.3804H24.3803H24.3802H24.3801H24.3799H24.3798H24.3797H24.3796H24.3794H24.3793H24.3792V27.3956L24.3743 27.396C24.1268 27.4206 23.9437 27.6413 23.9676 27.8938C23.9912 28.1437 24.2041 28.333 24.4526 28.3097H28.3111L30.9403 35.1282H16.958V31.9239C16.9655 31.7923 16.9093 31.6626 16.8145 31.5735C16.718 31.4829 16.5823 31.4423 16.4546 31.4586L16.454 31.4587C16.2224 31.4915 16.0558 31.6955 16.0633 31.9306V35.1355H2.07388L4.7031 28.317H8.56405C8.68455 28.317 8.79573 28.2676 8.88193 28.1873L8.88197 28.1874L8.88363 28.1857C8.97042 28.0968 9.01847 27.9826 9.01847 27.86C9.01847 27.7375 8.97042 27.6233 8.88363 27.5344C8.79521 27.4439 8.68249 27.4031 8.56405 27.4031H5.05385L7.68308 20.5846H11.3454C11.4965 20.5846 11.636 20.5073 11.7206 20.3852ZM16.5106 1.86394C20.6613 1.86394 24.0099 5.20556 24.0099 9.54638C24.0099 12.1073 23.0332 14.8422 21.5999 17.8039C20.7418 19.577 19.7222 21.4271 18.6529 23.3677C17.9498 24.6436 17.2251 25.9586 16.5106 27.3165C15.7962 25.9586 15.0715 24.6436 14.3684 23.3677C13.299 21.4271 12.2795 19.577 11.4214 17.8039C9.98804 14.8422 9.01138 12.1073 9.01138 9.54638C9.01138 5.2128 12.36 1.86394 16.5106 1.86394ZM16.5106 4.61273C14.5094 4.61273 12.8847 6.27867 12.8847 8.32547C12.8847 10.3723 14.5094 12.0382 16.5106 12.0382C18.5118 12.0382 20.1366 10.3723 20.1366 8.32547C20.1366 6.27867 18.5118 4.61273 16.5106 4.61273ZM16.5106 5.52667C18.0216 5.52667 19.242 6.77493 19.242 8.32547C19.242 9.876 18.0216 11.1243 16.5106 11.1243C14.9997 11.1243 13.7793 9.876 13.7793 8.32547C13.7793 6.77493 14.9997 5.52667 16.5106 5.52667Z" fill="#106EAF" stroke="#106EAF" stroke-width="0.1"/>
</svg>
