<svg width="34" height="24" viewBox="0 0 34 24" fill="none" xmlns="http://www.w3.org/2000/svg">
<path d="M18.9865 15.4445L18.9863 15.4446C17.8885 16.5187 16.0911 16.5261 14.9926 15.4445C14.9926 15.4444 14.9926 15.4444 14.9926 15.4444M18.9865 15.4445L15.0627 15.3732L14.9926 15.4444M18.9865 15.4445L21.3724 13.0991L31.1803 21.9199C30.9137 22.0648 30.6048 22.1482 30.2753 22.1482H3.73171C3.40219 22.1482 3.09325 22.0648 2.82666 21.9199L12.6206 13.1126M18.9865 15.4445L12.6206 13.1126M14.9926 15.4444L12.6206 13.1126M14.9926 15.4444L12.6206 13.1126M15.6906 14.7602L15.6904 14.76L2.82253 2.0846C3.09041 1.9426 3.40089 1.85862 3.73171 1.85862H30.2683C30.6 1.85862 30.9109 1.94306 31.1788 2.08986L18.2819 14.7599C17.5608 15.4672 16.4108 15.4731 15.6906 14.7602ZM2.73198 2.13576L2.65854 2.06342C2.6878 2.04532 2.71764 2.0279 2.74801 2.01119L2.73198 2.13576ZM3.73171 0.9C2.17395 0.9 0.9 2.13423 0.9 3.65517V20.3448C0.9 21.8658 2.17395 23.1 3.73171 23.1H30.2683C31.826 23.1 33.1 21.8658 33.1 20.3448V3.65517C33.1 2.13423 31.826 0.9 30.2683 0.9H3.73171ZM1.88049 3.65517C1.88049 3.32465 1.96336 3.01639 2.11827 2.75591L11.9274 12.4234L2.12233 21.2478C1.96896 20.9854 1.88049 20.6755 1.88049 20.3448V3.65517ZM22.0588 12.41L31.8872 2.75707C32.0371 3.01763 32.1195 3.32556 32.1195 3.65517V20.3448C32.1195 20.6771 32.0357 20.9823 31.8782 21.2482L22.0588 12.41Z" fill="#106EAF" stroke="#106EAF" stroke-width="0.2"/>
</svg>
