<svg width="33" height="33" viewBox="0 0 33 33" fill="none" xmlns="http://www.w3.org/2000/svg">
<path d="M26.2644 33H6.73559C3.01602 33 0 29.9891 0 26.2759V6.72483C0 3.01087 3.01602 0 6.73559 0H26.2637C29.984 0 32.9992 3.01087 32.9992 6.72407V26.2752C33 29.9891 29.984 33 26.2644 33Z" fill="#2BC442"/>
<path d="M4.91875 28.1369L6.79133 21.8482C5.80909 20.115 5.29236 18.1538 5.29236 16.1506C5.29236 14.5865 5.59969 13.0683 6.2053 11.6388C6.78983 10.2582 7.62744 9.01897 8.6933 7.95494C9.75915 6.89091 11.0005 6.05547 12.3835 5.4712C13.8154 4.86662 15.3362 4.55981 16.903 4.55981C18.4698 4.55981 19.9906 4.86662 21.4225 5.4712C22.8055 6.05472 24.0468 6.89091 25.1127 7.95494C26.1786 9.01897 27.0154 10.2582 27.6007 11.6388C28.2063 13.0683 28.5136 14.5865 28.5136 16.1506C28.5136 17.7147 28.2063 19.2329 27.6007 20.6624C27.0162 22.043 26.1786 23.2822 25.1127 24.3463C24.0468 25.4103 22.8055 26.2457 21.4225 26.83C19.9906 27.4346 18.4698 27.7414 16.903 27.7414C14.9129 27.7414 12.9642 27.2338 11.2393 26.2706L4.91875 28.1369ZM11.4939 24.2478L11.8479 24.4628C13.3672 25.3855 15.1148 25.8735 16.903 25.8735C22.2729 25.8735 26.6426 21.5121 26.6426 16.1506C26.6426 10.7898 22.2737 6.4277 16.903 6.4277C11.5323 6.4277 7.16344 10.7891 7.16344 16.1506C7.16344 17.9501 7.66059 19.7089 8.6014 21.2354L8.8206 21.5911L7.69524 25.3697L11.4939 24.2478Z" fill="white"/>
<path d="M12.6245 10.7988C12.446 10.8063 12.2743 10.8687 12.1341 10.9793C11.6054 11.3959 10.4604 12.5847 11.0939 14.7195C11.9037 17.4477 15.2873 20.0314 15.2873 20.0314C15.2873 20.0314 19.4716 23.1235 21.8858 21.2534C22.3806 20.8699 22.7234 20.533 22.8349 19.7103C22.8657 19.481 22.874 19.2298 22.813 18.9817L20.1819 17.6921C20.1819 17.6921 19.8098 17.5296 19.6072 17.7928C19.4045 18.056 18.6053 19.0426 18.6053 19.0426C18.6053 19.0426 18.4735 19.3366 17.886 19.0373C17.2984 18.7381 15.6993 18.2921 13.9638 15.5347C13.9638 15.5347 13.8169 15.282 14.0557 15.0609C14.2945 14.8399 14.9182 14.1526 14.9114 13.745C14.9039 13.3374 14.1235 11.9839 13.9284 11.3199C13.7484 10.7101 13.484 10.7635 12.6245 10.7988Z" fill="white"/>
</svg>
