<svg width="38" height="35" viewBox="0 0 38 35" fill="none" xmlns="http://www.w3.org/2000/svg">
<path d="M28.7688 7.72997C28.762 7.72241 28.7597 7.71259 28.7529 7.70503C28.7446 7.69672 28.734 7.69446 28.7257 7.6869C26.2183 5.1931 22.7658 3.64893 18.9583 3.64893C15.1522 3.64893 11.7005 5.1931 9.19385 7.68539C9.18478 7.6937 9.1727 7.69597 9.16439 7.70503C9.15608 7.71334 9.15381 7.72392 9.1455 7.73299C6.64792 10.2404 5.10223 13.6951 5.10223 17.5057C5.10223 21.3171 6.6517 24.7726 9.15381 27.2785C9.15834 27.2837 9.15985 27.2898 9.16439 27.2943C9.16967 27.2996 9.17647 27.3011 9.18176 27.3057C11.6892 29.804 15.1469 31.3512 18.959 31.3512C22.7726 31.3512 26.2304 29.8032 28.7386 27.3041C28.7431 27.3004 28.7484 27.2989 28.7529 27.2943C28.7567 27.2906 28.7582 27.2853 28.7612 27.2815C31.2649 24.7748 32.8151 21.3178 32.8151 17.505C32.8151 13.6936 31.2671 10.2374 28.7688 7.72997ZM30.7368 18.0988H31.5874C31.4454 21.1365 30.2306 23.8932 28.3072 26.0032L27.7096 25.4049C27.4762 25.1715 27.0977 25.17 26.8627 25.4049C26.6293 25.6383 26.6293 26.0176 26.8627 26.2518L27.4603 26.8494C25.3495 28.7682 22.5943 29.9808 19.5566 30.1236V29.2782C19.5566 28.9473 19.2884 28.6791 18.9575 28.6791C18.6266 28.6791 18.3584 28.9473 18.3584 29.2782V30.1236C15.3207 29.9808 12.5655 28.7682 10.4547 26.8486L11.0515 26.251C11.285 26.0176 11.285 25.6383 11.0515 25.4041C10.8166 25.1692 10.4381 25.1707 10.2047 25.4041L9.60709 26.0017C7.68367 23.8909 6.46963 21.1357 6.3276 18.098H7.17826C7.50916 18.098 7.77735 17.8298 7.77735 17.4989C7.77735 17.168 7.50916 16.8998 7.17826 16.8998H6.32987C6.47416 13.8621 7.6882 11.1069 9.61087 8.99688L10.2062 9.59219C10.3233 9.70929 10.4759 9.76746 10.6292 9.76746C10.7826 9.76746 10.9352 9.70929 11.0523 9.59219C11.2857 9.35875 11.2857 8.97951 11.0523 8.74532L10.457 8.15001C12.5678 6.22961 15.3222 5.01708 18.3592 4.8743V5.71966C18.3592 6.05056 18.6274 6.31875 18.9583 6.31875C19.2892 6.31875 19.5574 6.05056 19.5574 5.71966V4.87581C22.5943 5.01859 25.3488 6.23112 27.4596 8.15152L26.8643 8.74683C26.6308 8.98026 26.6308 9.35951 26.8643 9.59371C26.9813 9.7108 27.134 9.76897 27.2873 9.76897C27.4407 9.76897 27.5933 9.7108 27.7104 9.59371L28.3064 8.99764C30.2291 11.1077 31.4431 13.8629 31.5874 16.9006H30.7375C30.4066 16.9006 30.1384 17.1688 30.1384 17.4997C30.1392 17.8306 30.4066 18.0988 30.7368 18.0988Z" fill="#106EAF"/>
<path d="M18.9583 33.802C9.9667 33.802 2.65075 26.4914 2.65075 17.5058C2.65075 17.1749 2.38256 16.9067 2.05166 16.9067C1.72077 16.9067 1.45258 17.1749 1.45258 17.5058C1.45258 27.1524 9.30567 35.0002 18.9575 35.0002C19.2884 35.0002 19.5566 34.732 19.5566 34.4011C19.5566 34.0702 19.2884 33.8028 18.9583 33.802Z" fill="#106EAF"/>
<path d="M3.08137 15.7985C3.19846 15.9156 3.35107 15.9738 3.50443 15.9738C3.65779 15.9738 3.81039 15.9156 3.92749 15.7985C4.16093 15.5651 4.16093 15.1858 3.92749 14.9516L2.47321 13.4973C2.23977 13.2639 1.86128 13.2639 1.62633 13.4973L0.17508 14.9478C-0.0583599 15.1813 -0.0583599 15.5605 0.17508 15.7947C0.408519 16.0282 0.787764 16.0297 1.02196 15.7947L2.05015 14.7673L3.08137 15.7985Z" fill="#106EAF"/>
<path d="M18.9583 1.19742C27.9499 1.19742 35.2658 8.51337 35.2658 17.505C35.2658 17.8358 35.534 18.104 35.8649 18.104C36.1958 18.104 36.464 17.8358 36.464 17.505C36.4632 7.85309 28.6101 0 18.9583 0C18.6274 0 18.3592 0.268191 18.3592 0.599086C18.3592 0.929981 18.6281 1.19742 18.9583 1.19742Z" fill="#106EAF"/>
<path d="M37.7407 19.1256C37.5073 18.8922 37.1281 18.8906 36.8939 19.1256L35.8619 20.1568L34.8345 19.1294C34.601 18.8959 34.2218 18.8959 33.9876 19.1294C33.7541 19.3628 33.7541 19.7421 33.9876 19.9763L35.4381 21.4268C35.5552 21.5439 35.7078 21.602 35.8611 21.602C36.0137 21.602 36.1671 21.5439 36.2842 21.4268L37.74 19.9725C37.9749 19.7383 37.9749 19.359 37.7407 19.1256Z" fill="#106EAF"/>
<path d="M23.3634 11.7513L19.716 15.6548C19.4818 15.5588 19.2265 15.5037 18.9583 15.5037C17.8561 15.5037 16.9593 16.4004 16.9593 17.5026C16.9593 18.3918 17.5509 19.1382 18.3592 19.3936V23.2601C18.3592 23.591 18.6274 23.8591 18.9583 23.8591C19.2892 23.8591 19.5574 23.591 19.5574 23.2601V19.3936C20.3657 19.1382 20.9573 18.3918 20.9573 17.5026C20.9573 17.1045 20.8371 16.7351 20.6362 16.4231L24.2383 12.5679C24.4641 12.3262 24.4513 11.9477 24.2095 11.7218C23.9678 11.4959 23.5893 11.5095 23.3634 11.7513ZM18.9583 18.2974C18.5163 18.2974 18.1567 17.9401 18.1567 17.5026C18.1567 17.0607 18.5156 16.7011 18.9583 16.7011C19.4002 16.7011 19.7591 17.0607 19.7591 17.5026C19.7598 17.9401 19.4002 18.2974 18.9583 18.2974Z" fill="#106EAF"/>
</svg>
