<svg width="26" height="19" viewBox="0 0 26 19" fill="none" xmlns="http://www.w3.org/2000/svg">
<path d="M14.5084 12.1768L14.5083 12.177C13.675 13.0169 12.3098 13.0228 11.4759 12.1768L14.5084 12.1768ZM14.5084 12.1768L16.2801 10.3824L23.5952 17.1607C23.4053 17.2615 23.1877 17.319 22.9564 17.319H3.04878C2.81749 17.319 2.59994 17.2615 2.41 17.1607L9.71467 10.3929L11.4758 12.1767L14.5084 12.1768ZM12.0366 11.6178L12.0364 11.6176L2.40588 1.84365C2.59711 1.74436 2.81618 1.68621 3.04878 1.68621H22.9512C23.1847 1.68621 23.4041 1.74478 23.5954 1.84739L13.9429 11.6175C13.4119 12.1541 12.5666 12.1584 12.0366 11.6178ZM3.04878 0.9C1.8645 0.9 0.9 1.86609 0.9 3.05172V15.9483C0.9 17.1339 1.8645 18.1 3.04878 18.1H22.9512C24.1355 18.1 25.1 17.1339 25.1 15.9483V3.05172C25.1 1.86609 24.1355 0.9 22.9512 0.9H3.04878ZM1.68537 3.05172C1.68537 2.81193 1.74086 2.58808 1.84444 2.39668L9.16132 9.82648L1.8484 16.6074C1.74484 16.4141 1.68537 16.1885 1.68537 15.9483V3.05172ZM16.8284 9.81614L24.1593 2.39788C24.2595 2.58932 24.3146 2.81282 24.3146 3.05172V15.9483C24.3146 16.19 24.2582 16.4125 24.1521 16.6079L16.8284 9.81614Z" fill="black" stroke="black" stroke-width="0.2"/>
</svg>
