<svg width="24" height="21" viewBox="0 0 24 21" fill="none" xmlns="http://www.w3.org/2000/svg">
<path d="M12.0047 0C11.7282 0 11.2917 0.0192219 10.8407 0.39405L0.248671 9.2746C0.117726 9.3611 0.0304287 9.49565 0.00617951 9.64943C-0.0180696 9.8032 0.0304287 9.95698 0.127425 10.0771C0.229272 10.1973 0.374767 10.2645 0.529961 10.2693C0.685156 10.2741 0.835501 10.2117 0.942197 10.0963L2.76573 8.56339V20.457C2.76573 20.7549 3.00823 20.9952 3.30891 20.9952H18.518C18.6635 20.9952 18.8041 20.9423 18.906 20.8414C19.0078 20.7405 19.066 20.6011 19.066 20.457C19.066 20.3128 19.0078 20.1735 18.906 20.0725C18.8041 19.9716 18.6635 19.914 18.518 19.9188H3.85695V7.65034L11.5342 1.21098C11.6021 1.15332 12.0095 1.07643 11.9998 1.07643C11.9707 1.07643 12.1162 1.08124 12.2278 1.11007C12.3393 1.1389 12.4508 1.19657 12.4654 1.21098L20.1475 7.65515V20.457C20.1475 20.6011 20.2009 20.7405 20.3027 20.8414C20.4046 20.9423 20.5452 21 20.6907 21C20.8362 21 20.9769 20.9423 21.0787 20.8414C21.1805 20.7405 21.2387 20.6011 21.2339 20.457V8.55858L23.0574 10.0915C23.1641 10.2069 23.3145 10.2693 23.4697 10.2645C23.6249 10.2597 23.7704 10.1924 23.8722 10.0723C23.974 9.95217 24.0177 9.7984 23.9934 9.64462C23.9692 9.49085 23.8819 9.35629 23.751 9.26979L13.1686 0.39405C12.9455 0.206636 12.7176 0.129748 12.5139 0.0768879C12.3102 0.019222 12.1647 0 12.0047 0Z" fill="black"/>
</svg>
