<svg width="37" height="37" viewBox="0 0 37 37" fill="none" xmlns="http://www.w3.org/2000/svg">
<path d="M7.51076 12.1498C3.45541 12.0572 0.0922981 15.2973 0 19.3821C0.0173059 20.7418 0.386498 22.0841 1.07297 23.2586C1.70175 24.3637 6.94543 33.7426 6.99735 33.8409L7.49922 34.7435L8.00109 33.8409C8.05301 33.7484 13.3025 24.3348 13.9255 23.2644C14.6119 22.0899 14.9869 20.7476 14.9984 19.3647C14.9061 15.3031 11.5488 12.0572 7.51076 12.1498ZM12.9275 22.68C12.4083 23.5768 8.84331 29.9644 7.49922 32.3713C6.1609 29.976 2.57858 23.5768 2.07094 22.68C1.48254 21.6791 1.16526 20.5335 1.15373 19.3879C1.22872 16.009 3.99766 13.307 7.37808 13.307C7.42423 13.307 7.47038 13.307 7.51076 13.307C7.55691 13.307 7.59729 13.307 7.64344 13.307C11.0008 13.307 13.7697 16.009 13.8447 19.3705C13.8332 20.5335 13.5159 21.6733 12.9275 22.68Z" fill="black"/>
<path d="M7.51076 15.6213C5.34175 15.575 3.50733 17.3223 3.46118 19.5325C3.47848 21.7717 5.24369 23.6116 7.47038 23.7273L7.49922 23.7215H7.52806C9.75476 23.6058 11.52 21.7659 11.5373 19.5268V19.5094C11.4911 17.3223 9.6913 15.5866 7.51076 15.6213ZM7.49922 22.5643C5.89554 22.466 4.62644 21.1352 4.6149 19.5383C4.64952 18.0051 5.90131 16.7785 7.4473 16.7785C7.47038 16.7785 7.48768 16.7785 7.51076 16.7785C9.07406 16.7322 10.3432 17.9761 10.3835 19.5268C10.3662 21.141 9.1029 22.466 7.49922 22.5643Z" fill="black"/>
<path d="M37 5.26465C36.9365 3.79505 36.3078 2.44116 35.229 1.44599C34.1503 0.450829 32.737 -0.0583256 31.2833 0.00531867C28.4163 0.132607 26.1665 2.38909 26.0396 5.29358C26.0511 6.28874 26.3223 7.26655 26.8184 8.12286C27.2741 8.9213 31.0122 15.6155 31.0122 15.6155L31.514 16.5181L32.0159 15.6155C32.0505 15.5461 35.7713 8.88659 36.2097 8.12864C36.7231 7.26655 36.9942 6.28874 37 5.26465ZM35.2233 7.54427C34.8714 8.15179 32.5639 12.2829 31.5198 14.1517C30.4814 12.2944 28.1682 8.15757 27.8221 7.55006L27.8163 7.54427C27.4183 6.86154 27.1991 6.08045 27.1933 5.31672C27.2914 3.04867 29.0681 1.26663 31.3352 1.16249C31.3987 1.1567 31.4621 1.1567 31.5256 1.1567C32.6101 1.1567 33.6427 1.55592 34.4503 2.29651C35.304 3.0776 35.8001 4.14798 35.852 5.28201C35.8405 6.07467 35.6271 6.85576 35.2233 7.54427Z" fill="black"/>
<path d="M31.6525 2.4643C29.9796 2.3833 28.5663 3.69669 28.4913 5.3688C28.4855 5.45558 28.4855 5.53659 28.4913 5.62337C28.5605 7.25498 29.9046 8.53365 31.5198 8.53365C31.5602 8.53365 31.6063 8.53365 31.6467 8.53365C32.4543 8.49894 33.2042 8.15179 33.7523 7.55584C34.3003 6.9599 34.5829 6.1846 34.5483 5.3688C34.4849 3.77769 33.2389 2.52795 31.6525 2.4643ZM32.9043 6.76897C32.5639 7.13926 32.1024 7.35334 31.6006 7.37648C30.5795 7.42277 29.6911 6.61275 29.645 5.5713C29.645 5.51923 29.645 5.46715 29.645 5.41508C29.6911 4.40256 30.5218 3.61568 31.5198 3.61568C31.5486 3.61568 31.5717 3.61568 31.6006 3.61568C32.5812 3.65619 33.3542 4.43149 33.3946 5.41508C33.4177 5.91845 33.2446 6.39868 32.9043 6.76897Z" fill="black"/>
<path d="M20.0575 17.3686C19.2095 17.6521 18.4769 18.1844 17.9404 18.9135L18.8692 19.602C19.2615 19.0697 19.8037 18.6762 20.4267 18.4679L20.0575 17.3686Z" fill="black"/>
<path d="M21.9208 35.8428H19.6133V37H21.9208V35.8428Z" fill="black"/>
<path d="M17.6635 21.4072L17.0867 21.4361C17.0925 22.3155 17.3463 23.1718 17.8193 23.9066L18.7884 23.2818C18.4365 22.7263 18.2462 22.0841 18.2404 21.4014H17.6635V21.4072Z" fill="black"/>
<path d="M17.3059 35.8428H14.9984V37H17.3059V35.8428Z" fill="black"/>
<path d="M20.2594 24.5778L19.7749 25.625C20.3171 25.8796 20.8997 26.0243 21.5285 26.0532H22.2727V24.896H21.5574C21.1017 24.8729 20.669 24.7687 20.2594 24.5778Z" fill="black"/>
<path d="M33.3831 26.707C33.9715 27.0541 34.4906 27.5401 34.8829 28.1014L35.829 27.4418C35.3444 26.7417 34.6983 26.1458 33.9715 25.7118L33.3831 26.707Z" fill="black"/>
<path d="M12.691 35.8428H10.3835V37H12.691V35.8428Z" fill="black"/>
<path d="M33.0543 35.2469L33.6254 36.2536C34.3407 35.8428 34.9983 35.27 35.5232 34.5931L34.6118 33.8814C34.1791 34.4369 33.6369 34.9113 33.0543 35.2469Z" fill="black"/>
<path d="M29.1893 24.896V26.0532H30.966C31.1506 26.059 31.2833 26.059 31.439 26.0763L31.5544 24.9249C31.3583 24.9076 31.1679 24.896 30.966 24.896H29.1893Z" fill="black"/>
<path d="M35.6617 29.9933C35.7021 30.2363 35.7309 30.4851 35.7309 30.7166C35.7309 31.1505 35.6674 31.5902 35.5463 32.03L36.6596 32.3424C36.8096 31.8043 36.8846 31.2547 36.8846 30.705C36.8789 30.4041 36.85 30.0975 36.7981 29.7966L35.6617 29.9933Z" fill="black"/>
<path d="M24.834 17.143H22.5265V18.3002H24.834V17.143Z" fill="black"/>
<path d="M30.8506 35.8428H28.8432V37H30.8506C30.966 37 31.0756 36.9942 31.1852 36.9884L31.116 35.8313C31.0295 35.8428 30.9372 35.8428 30.8506 35.8428Z" fill="black"/>
<path d="M26.5357 35.8428H24.2283V37H26.5357V35.8428Z" fill="black"/>
<path d="M26.8818 24.896H24.5744V26.0532H26.8818V24.896Z" fill="black"/>
<path d="M29.4489 17.143H27.1414V18.3002H29.4489V17.143Z" fill="black"/>
</svg>
