<svg width="25" height="15" viewBox="0 0 25 15" fill="none" xmlns="http://www.w3.org/2000/svg">
<path d="M0.285566 0H24.7144C24.8754 0 25 0.119721 25 0.284337V14.7157C25 14.8803 24.8754 15 24.7144 15H0.285566C0.124611 15 0 14.8803 0 14.7157V0.284337C0 0.119721 0.124611 0 0.285566 0ZM2.3001 13.1992C2.18588 13.3089 2.00415 13.299 1.90031 13.1892C1.78609 13.0795 1.78609 12.9049 1.90031 12.8051L7.81932 7.26305L0.581516 0.91287V14.4413H24.4133V0.91287L17.1911 7.24809L23.1308 12.8001C23.2451 12.8999 23.2451 13.0745 23.1308 13.1842C23.0166 13.294 22.8349 13.304 22.7207 13.1942L16.7705 7.62221L12.6947 11.1989C12.5909 11.2986 12.4195 11.2986 12.3053 11.1989L8.23988 7.64716L2.3001 13.1992ZM1.04361 0.563685L12.5026 10.6152L23.9564 0.563685H1.04361Z" fill="black"/>
</svg>
