<svg width="17" height="26" viewBox="0 0 17 26" fill="none" xmlns="http://www.w3.org/2000/svg">
<path d="M16.4295 24.0539C16.4295 24.7321 15.6166 25.2111 13.8624 25.5573C12.0892 25.8703 10.2922 26.0173 8.49525 25.9984C6.69827 26.0173 4.90129 25.8703 3.12808 25.5573C1.37864 25.2111 0.560962 24.7321 0.560962 24.0539C0.560962 23.3283 1.50224 22.9727 2.20582 22.7687C3.33725 22.4747 4.49245 22.2897 5.65716 22.2186C5.78076 22.2091 5.90912 22.2471 6.00419 22.3277C6.09927 22.4083 6.16107 22.5269 6.17058 22.6502C6.18009 22.7735 6.14206 22.9015 6.05649 22.9964C5.97567 23.0912 5.85682 23.1481 5.73322 23.1576C3.10906 23.3663 1.86829 23.8121 1.55453 24.0539C1.73993 24.1915 2.3104 24.4618 3.61773 24.6942C5.22931 24.9503 6.8599 25.0736 8.49525 25.0594C10.1258 25.0736 11.7612 24.9503 13.3728 24.6942C14.6801 24.4618 15.2506 24.1962 15.436 24.0539C15.127 23.8121 13.8814 23.3663 11.2573 23.1576C11.1337 23.1481 11.0148 23.0912 10.934 22.9964C10.8532 22.9015 10.8104 22.7782 10.8199 22.6502C10.8294 22.5269 10.8912 22.4083 10.9863 22.3277C11.0814 22.2471 11.205 22.2091 11.3333 22.2186C12.498 22.2945 13.6532 22.4747 14.7847 22.7687C15.493 22.9727 16.4295 23.3283 16.4295 24.0539ZM5.24357 20.2647C2.5481 16.7268 0 13.3833 0 8.47959C0 6.23164 0.893736 4.07381 2.49105 2.48507C4.08361 0.89159 6.24664 0 8.5 0C10.7534 0 12.9164 0.89159 14.5089 2.48507C16.1015 4.07381 17 6.23164 17 8.47959C17 13.3833 14.4519 16.7268 11.7564 20.2647C10.7961 21.5262 9.80257 22.8304 8.89933 24.2389C8.81376 24.3717 8.66163 24.4571 8.50475 24.4571C8.34787 24.4571 8.19575 24.3764 8.11018 24.2389C7.19743 22.8304 6.20386 21.5262 5.24357 20.2647ZM0.941275 8.47959C0.941275 13.0703 3.39429 16.2857 5.99469 19.6956C6.83138 20.7911 7.68708 21.9198 8.5 23.1292C9.31292 21.9198 10.1686 20.7911 11.0053 19.6956C13.6057 16.2857 16.0587 13.0656 16.0587 8.47959C16.0587 5.78585 14.6183 3.29604 12.2794 1.94917C9.94044 0.602297 7.05956 0.602297 4.72064 1.94917C2.38171 3.29604 0.941275 5.78585 0.941275 8.47959ZM8.5 13.2126C7.24021 13.2126 6.03272 12.7146 5.14374 11.8278C4.25475 10.9409 3.75084 9.73635 3.75084 8.47959C3.75084 7.22282 4.25 6.01823 5.13898 5.13138C6.02796 4.24453 7.23546 3.74183 8.49525 3.74183C9.75503 3.74183 10.9625 4.23979 11.8515 5.13138C12.7405 6.01823 13.2397 7.22282 13.2397 8.47959C13.2397 9.73635 12.7357 10.9409 11.8468 11.8278C10.9625 12.7146 9.75503 13.2126 8.5 13.2126ZM8.5 12.2736C9.50783 12.2736 10.4776 11.8752 11.1907 11.1638C11.9038 10.4525 12.3031 9.48499 12.3031 8.47959C12.3031 7.47418 11.9038 6.50671 11.1907 5.79533C10.4776 5.08396 9.50783 4.68559 8.5 4.68559C7.49217 4.68559 6.52237 5.08396 5.80928 5.79533C5.0962 6.50671 4.69687 7.47418 4.69687 8.47959C4.69687 9.48499 5.10095 10.4525 5.81404 11.1638C6.52237 11.8705 7.49217 12.2736 8.5 12.2736Z" fill="black"/>
</svg>
