<svg width="17" height="29" viewBox="0 0 17 29" fill="none" xmlns="http://www.w3.org/2000/svg">
<path fill-rule="evenodd" clip-rule="evenodd" d="M13.3153 27.6981H2.82318C1.75571 27.6981 0.884876 26.8175 0.884876 25.738V23.8488H15.2536V25.738C15.2536 26.8175 14.3827 27.6981 13.3153 27.6981ZM2.82318 0.894863H13.3153C14.3827 0.894863 15.2536 1.77552 15.2536 2.85504V3.21014H0.884876V2.85504C0.884876 1.77552 1.75571 0.894863 2.82318 0.894863ZM0.884876 4.10501H15.2536V22.9397H0.884876V4.10501ZM13.3153 0H2.82318C1.26411 0 0 1.27838 0 2.85504V25.738C0 27.3146 1.26411 28.593 2.82318 28.593H13.3153C14.8743 28.593 16.1385 27.3146 16.1385 25.738V2.85504C16.1385 1.27838 14.8743 0 13.3153 0Z" fill="black"/>
<path fill-rule="evenodd" clip-rule="evenodd" d="M9.00326 25.3971H7.1071C6.86833 25.3971 6.65764 25.5959 6.65764 25.8516C6.65764 26.0931 6.85428 26.3061 7.1071 26.3061H9.00326C9.24204 26.3061 9.45273 26.1073 9.45273 25.8516C9.43868 25.5959 9.24204 25.3971 9.00326 25.3971Z" fill="black"/>
</svg>
