<svg width="32" height="32" viewBox="0 0 32 32" fill="none" xmlns="http://www.w3.org/2000/svg">
<path fill-rule="evenodd" clip-rule="evenodd" d="M17.6364 22.3636C17.4545 22.7273 16.9091 22.9091 16.5455 22.9091H15.4545C15.0909 22.9091 14.5455 22.7273 14.3636 22.3636L13.0909 20.7273C12.5455 20.1818 11.8182 18.9091 11.8182 18.1818L11.4545 17.4545C11.4545 16.9091 11.2727 16.3636 10.9091 15.8182V15.6364C10.7273 15.0909 10.5455 14.5455 10.5455 13.8182V10.3636C10.5455 7.27273 13.0909 4.72727 16.1818 4.72727C19.2727 4.72727 21.8182 7.27273 21.8182 10.3636V13.6364C21.8182 14.3636 21.6364 15.0909 21.2727 15.6364C20.9091 16.1818 20.7273 16.9091 20.5455 17.4545V18.1818C20.5455 18.9091 19.8182 20 19.0909 20.7273L17.6364 22.3636ZM24.3636 27.2727L20.3636 25.0909L20 21.4545C20.5455 20.7273 21.4545 19.4545 21.6364 18.3636V17.6364C21.6364 17.0909 21.8182 16.5455 22.1818 16.1818C22.5455 15.4545 22.9091 14.5455 22.9091 13.6364V10.3636C22.9091 6.72727 19.8182 3.63636 16.1818 3.63636C12.5455 3.63636 9.45455 6.72727 9.45455 10.3636V13.8182C9.45455 14.5455 9.63636 15.4545 10 16V16.3636C10.1818 16.7273 10.3636 17.0909 10.3636 17.6364L10.5455 18.5455C10.7273 19.4545 11.4545 20.7273 12 21.4545C12 21.4545 12 21.4545 12 21.6364L11.6364 25.2727L7.63636 27.2727C7.45455 27.4545 7.27273 27.8182 7.45455 28C7.63636 28.1818 7.81818 28.3636 8 28.3636C8.18182 28.3636 8.18182 28.3636 8.18182 28.3636L12.5455 26C12.5455 25.8182 12.7273 25.6364 12.7273 25.4545L12.9091 22.5455L13.2727 23.0909C13.8182 23.6364 14.5455 24 15.2727 24H16.3636C17.0909 24 17.8182 23.6364 18.1818 23.0909L18.7273 22.3636L18.9091 25.2727C18.9091 25.4545 19.0909 25.6364 19.2727 25.6364L23.6364 28H23.8182C24 28 24.1818 27.8182 24.3636 27.6364C24.7273 27.6364 24.5455 27.4545 24.3636 27.2727Z" fill="black"/>
<path fill-rule="evenodd" clip-rule="evenodd" d="M31.4545 25.6364C31.0909 25.6364 30.9091 25.8182 30.9091 26.1818V30.9091H26.1818C25.8182 30.9091 25.6364 31.0909 25.6364 31.4545C25.6364 31.8182 25.8182 32 26.1818 32H31.4545C31.8182 32 32 31.8182 32 31.4545V26.1818C32 25.8182 31.8182 25.6364 31.4545 25.6364Z" fill="black"/>
<path fill-rule="evenodd" clip-rule="evenodd" d="M5.81818 30.9091H1.09091V26.1818C1.09091 25.8182 0.909091 25.6364 0.545455 25.6364C0.181818 25.6364 0 25.8182 0 26.1818V31.4545C0 31.8182 0.181818 32 0.545455 32H5.81818C6.18182 32 6.36364 31.8182 6.36364 31.4545C6.36364 31.0909 6.18182 30.9091 5.81818 30.9091Z" fill="black"/>
<path fill-rule="evenodd" clip-rule="evenodd" d="M5.81818 0H0.545455C0.181818 0 0 0.181818 0 0.545455V5.81818C0 6.18182 0.181818 6.36364 0.545455 6.36364C0.909091 6.36364 1.09091 6.18182 1.09091 5.81818V1.09091H5.81818C6.18182 1.09091 6.36364 0.909091 6.36364 0.545455C6.36364 0.181818 6.18182 0 5.81818 0Z" fill="black"/>
<path fill-rule="evenodd" clip-rule="evenodd" d="M31.4545 0H26.1818C25.8182 0 25.6364 0.181818 25.6364 0.545455C25.6364 0.909091 25.8182 1.09091 26.1818 1.09091H30.9091V5.81818C30.9091 6.18182 31.0909 6.36364 31.4545 6.36364C31.8182 6.36364 32 6.18182 32 5.81818V0.545455C32 0.181818 31.8182 0 31.4545 0Z" fill="black"/>
</svg>
