<svg width="24" height="16" viewBox="0 0 24 16" fill="none" xmlns="http://www.w3.org/2000/svg">
<path d="M11.1057 9.90796L11.1055 9.9078L2.18267 1.36101C2.35544 1.27937 2.55224 1.23166 2.76105 1.23166H21.2326C21.4422 1.23166 21.6395 1.27976 21.8123 1.36409L12.8688 9.90765C12.3783 10.3755 11.5953 10.3792 11.1057 9.90796ZM2.08909 1.40985L2.01404 1.33797C2.04378 1.32008 2.07437 1.30317 2.10573 1.28732L2.08909 1.40985ZM13.3997 10.4192L13.3999 10.4191L15.0412 8.85012L21.8112 14.7706C21.6398 14.8532 21.4447 14.9002 21.2374 14.9002H2.76105C2.55377 14.9002 2.35865 14.8532 2.1873 14.7706L8.94755 8.85929L10.5791 10.419C11.3554 11.1623 12.624 11.1571 13.3997 10.4192ZM2.76105 0.518179C1.66346 0.518179 0.759573 1.36461 0.759573 2.41536V13.7119C0.759573 14.7627 1.66346 15.6091 2.76105 15.6091H21.2326C22.3302 15.6091 23.234 14.7627 23.234 13.7119V2.41536C23.234 1.36461 22.3302 0.518179 21.2326 0.518179H2.76105ZM1.50285 2.41536C1.50285 2.21116 1.5522 2.02035 1.64455 1.85646L8.41933 8.34912L1.64838 14.2746C1.55576 14.1089 1.50285 13.9164 1.50285 13.7119V2.41536ZM15.5647 8.34008L22.3524 1.85758C22.4418 2.0215 22.4908 2.21199 22.4908 2.41536V13.7119C22.4908 13.9178 22.4405 14.1077 22.3458 14.2751L15.5647 8.34008Z" fill="#106EAF" stroke="#106EAF" stroke-width="0.2"/>
</svg>
