<svg width="14" height="25" viewBox="0 0 14 25" fill="none" xmlns="http://www.w3.org/2000/svg">
<path fill-rule="evenodd" clip-rule="evenodd" d="M14 2.31697V22.683C14 23.9632 13.0776 25 11.9388 25H2.05644C0.922322 24.9947 -3.05176e-05 23.9579 -3.05176e-05 22.683V2.31697C-3.05176e-05 1.03682 0.922322 0 2.06115 0H11.9435C13.0776 0 14 1.03682 14 2.31697ZM3.50115 0.92573H2.06115C1.37879 0.92573 0.823499 1.54994 0.823499 2.31697V22.683C0.823499 23.4501 1.37879 24.0743 2.06115 24.0743H11.9435C12.6259 24.0743 13.1811 23.4501 13.1811 22.683V2.31697C13.1811 1.54994 12.6259 0.92573 11.9435 0.92573H10.4988L10.0659 1.56581C9.9482 1.73508 9.88703 1.94668 9.88703 2.16356V2.354C9.88703 2.62378 9.79291 2.88299 9.6235 3.07342C9.45409 3.26386 9.2235 3.36966 8.9835 3.36966H5.03056C4.79056 3.36966 4.55997 3.26386 4.39056 3.07342C4.22115 2.88299 4.12703 2.62378 4.12703 2.354V2.16356C4.12703 1.94668 4.06585 1.73508 3.9482 1.56581L3.50115 0.92573ZM9.45879 0.92573H4.54115C4.95056 1.47588 4.94115 1.97313 4.94115 2.354C4.94115 2.37516 4.95056 2.40161 4.96468 2.41748C4.97879 2.43335 5.00232 2.44393 5.02115 2.44393H8.97409C8.99762 2.44393 9.01644 2.43335 9.03056 2.41748C9.04467 2.40161 9.05409 2.37516 9.05409 2.354C9.05879 1.90436 9.07291 1.48117 9.45879 0.92573ZM4.52703 23.1432C4.30115 23.1432 4.11291 22.9369 4.11291 22.6777C4.11291 22.4185 4.29644 22.2122 4.52703 22.2122H9.4682C9.69409 22.2122 9.88232 22.4185 9.88232 22.6777C9.88232 22.9369 9.69879 23.1432 9.4682 23.1432H4.52703Z" fill="#106EAF"/>
</svg>
