<svg width="23" height="23" viewBox="0 0 23 23" fill="none" xmlns="http://www.w3.org/2000/svg">
<path d="M11.5 4.55437C9.50578 4.55437 7.88118 6.17441 7.88118 8.16865C7.88118 10.1629 9.50578 11.7829 11.5 11.7829C13.4943 11.7829 15.1143 10.1583 15.1143 8.16865C15.1143 6.17441 13.4943 4.55437 11.5 4.55437ZM11.5 11.0482C9.91193 11.0482 8.62046 9.75675 8.62046 8.16865C8.62046 6.58056 9.91193 5.28909 11.5 5.28909C13.0881 5.28909 14.3796 6.58056 14.3796 8.16865C14.3796 9.75675 13.0881 11.0482 11.5 11.0482Z" fill="#106EAF"/>
<path d="M11.5 0C5.16134 0 2.67029e-05 5.16131 2.67029e-05 11.5C2.67029e-05 17.8387 5.16134 23 11.5 23C17.8387 23 23 17.8433 23 11.5C23 5.15675 17.8433 0 11.5 0ZM17.8935 19.9972C16.1137 21.3435 13.8959 22.1421 11.5 22.1421C9.09963 22.1421 6.88634 21.3435 5.10657 19.9972V18.578C5.10657 15.3516 7.6165 13.2615 11.5046 13.2615C15.3881 13.2615 17.898 15.347 17.898 18.578L17.8935 19.9972ZM18.6328 19.3857V18.578C18.6328 14.8998 15.8308 12.5268 11.5 12.5268C7.16471 12.5268 4.36729 14.9044 4.36729 18.578V19.3857C2.21332 17.4371 0.862527 14.626 0.862527 11.5C0.862527 5.63591 5.63594 0.8625 11.5 0.8625C17.3641 0.8625 22.1375 5.63591 22.1375 11.5C22.1375 14.626 20.7867 17.4371 18.6328 19.3857Z" fill="#106EAF"/>
</svg>
