<svg width="21" height="18" viewBox="0 0 21 18" fill="none" xmlns="http://www.w3.org/2000/svg">
<path fill-rule="evenodd" clip-rule="evenodd" d="M15.2346 0.55455C15.4852 0.55455 15.6875 0.738456 15.6875 0.96628V1.92698H19.0092C19.6765 1.92698 20.217 2.41832 20.217 3.02493V16.4748C20.217 17.0814 19.6765 17.5727 19.0092 17.5727H1.4951C0.827751 17.5727 0.287231 17.0814 0.287231 16.4748V3.02493C0.287231 2.41832 0.827751 1.92698 1.4951 1.92698H4.81673V0.96628C4.81673 0.738456 5.01905 0.55455 5.26968 0.55455C5.52031 0.55455 5.72263 0.738456 5.72263 0.96628V1.92698H14.7816V0.96628C14.7816 0.738456 14.9839 0.55455 15.2346 0.55455ZM19.3111 6.31877H1.19313V16.4748C1.19313 16.6148 1.3109 16.7328 1.45886 16.7465L1.4951 16.7493H19.0092C19.1632 16.7493 19.293 16.6422 19.3081 16.5077L19.3111 16.4748V6.31877ZM19.0092 2.75044H15.6875V3.43666C15.6875 3.66449 15.4852 3.84839 15.2346 3.84839C14.9839 3.84839 14.7816 3.66449 14.7816 3.43666V2.75044H5.72263V3.43666C5.72263 3.66449 5.52031 3.84839 5.26968 3.84839C5.01905 3.84839 4.81673 3.66449 4.81673 3.43666V2.75044H1.4951C1.34109 2.75044 1.21125 2.85749 1.19615 2.99199L1.19313 3.02493V5.49531H19.3111V3.02493C19.3111 2.87396 19.1752 2.75044 19.0092 2.75044ZM13.1389 9.42871C13.3352 9.28598 13.6191 9.31342 13.7761 9.49184C13.924 9.65928 13.9059 9.89534 13.7398 10.0436L13.7066 10.071L8.81476 13.6393C8.63056 13.7738 8.36785 13.7574 8.20781 13.6064L8.17761 13.5735L6.72818 11.9265C6.57115 11.7481 6.60437 11.4901 6.79763 11.3474C6.98183 11.2129 7.24152 11.2321 7.40458 11.3803L7.43478 11.4105L8.60037 12.7363L13.1389 9.42871Z" fill="black"/>
</svg>
