<svg width="20" height="36" viewBox="0 0 20 36" fill="none" xmlns="http://www.w3.org/2000/svg">
<path fill-rule="evenodd" clip-rule="evenodd" d="M20 3.33644V32.6636C20 34.507 18.6824 36 17.0555 36H2.93782C1.31765 35.9924 0 34.4994 0 32.6636V3.33644C0 1.49302 1.31765 0 2.94454 0H17.0622C18.6824 0 20 1.49302 20 3.33644ZM5.64034 2.25476C5.24033 1.67747 4.58266 1.33305 3.88033 1.33305H2.94454C1.96975 1.33305 1.17647 2.23191 1.17647 3.33644V32.6636C1.17647 33.7681 1.96975 34.667 2.94454 34.667H17.0622C18.037 34.667 18.8303 33.7681 18.8303 32.6636V3.33644C18.8303 2.23191 18.037 1.33305 17.0622 1.33305H16.1083C15.4146 1.33305 14.7664 1.67868 14.3798 2.25476C14.2118 2.49852 14.1244 2.80322 14.1244 3.11553V3.38976C14.1244 3.77825 13.9899 4.1515 13.7479 4.42573C13.5059 4.69996 13.1765 4.85231 12.8336 4.85231H7.18655C6.8437 4.85231 6.51429 4.69996 6.27227 4.42573C6.03025 4.1515 5.8958 3.77825 5.8958 3.38976V3.11553C5.8958 2.80322 5.8084 2.49852 5.64034 2.25476ZM12.9345 3.38976C12.944 2.46856 12.2571 1.33305 11.3359 1.33305H8.66697C7.76427 1.33305 7.05882 2.48706 7.05882 3.38976C7.05882 3.42023 7.07227 3.45832 7.09244 3.48117C7.11261 3.50402 7.14622 3.51926 7.17311 3.51926H12.8202C12.8538 3.51926 12.8807 3.50402 12.9008 3.48117C12.921 3.45832 12.9345 3.42023 12.9345 3.38976ZM6.46723 33.3263C6.14454 33.3263 5.87563 33.0292 5.87563 32.6559C5.87563 32.2827 6.13781 31.9856 6.46723 31.9856H13.5261C13.8487 31.9856 14.1176 32.2827 14.1176 32.6559C14.1176 33.0292 13.8555 33.3263 13.5261 33.3263H6.46723Z" fill="black"/>
</svg>
