<svg width="34" height="43" viewBox="0 0 34 43" fill="none" xmlns="http://www.w3.org/2000/svg">
<g clip-path="url(#clip0_8_476)">
<path d="M21.3199 0H2.85923C1.28458 0 0 1.2805 0 2.85014V40.1499C0 41.7195 1.28458 43 2.85923 43H21.3199C22.8946 43 24.1791 41.7195 24.1791 40.1499V2.85014C24.1791 1.2805 22.8946 0 21.3199 0Z" fill="#3E3E3E"/>
<path d="M2.36197 37.1553V3.38725C2.36197 3.3666 2.38269 3.34595 2.40341 3.34595H21.755C21.7757 3.34595 21.7965 3.3666 21.7965 3.38725V37.1553C21.7965 37.1759 21.7757 37.1966 21.755 37.1966H2.42413C2.38269 37.2172 2.36197 37.1966 2.36197 37.1553Z" fill="#FFFFFA"/>
<path d="M14.1097 40.2118C14.1097 39.0965 13.1981 38.1877 12.0792 38.1877C10.9604 38.1877 10.0488 39.0965 10.0488 40.2118C10.0488 41.327 10.9604 42.2358 12.0792 42.2358C13.1981 42.2358 14.1097 41.327 14.1097 40.2118Z" fill="#FFFFFA"/>
<path d="M14.9592 1.38379H9.21997C9.05422 1.38379 8.9299 1.52836 8.9299 1.67293V1.73489C8.9299 1.90012 9.07493 2.02404 9.21997 2.02404H14.9592C15.1249 2.02404 15.2492 1.87947 15.2492 1.73489V1.69359C15.2492 1.52836 15.1249 1.38379 14.9592 1.38379Z" fill="#FFFFFA"/>
<path d="M18.1499 23.4207L15.8915 28.2948L20.5326 24.9903L18.1499 23.4207Z" fill="#7B7C81"/>
<path d="M23.3918 26.2089C29.2506 26.2089 34 21.4746 34 15.6345C34 9.7944 29.2506 5.06006 23.3918 5.06006C17.5331 5.06006 12.7837 9.7944 12.7837 15.6345C12.7837 21.4746 17.5331 26.2089 23.3918 26.2089Z" fill="#7B7C81"/>
<path d="M19.9317 15.6344C19.9317 15.1594 19.5381 14.7876 19.0823 14.7876C18.6057 14.7876 18.2328 15.18 18.2328 15.6344C18.2328 16.0888 18.6264 16.4812 19.0823 16.4812C19.5588 16.5018 19.9317 16.1094 19.9317 15.6344Z" fill="white"/>
<path d="M24.2413 15.6344C24.2413 15.1594 23.8477 14.7876 23.3918 14.7876C22.9153 14.7876 22.5424 15.18 22.5424 15.6344C22.5424 16.0888 22.936 16.4812 23.3918 16.4812C23.8477 16.5018 24.2413 16.1094 24.2413 15.6344Z" fill="white"/>
<path d="M27.7014 16.4812C28.1706 16.4812 28.5509 16.102 28.5509 15.6344C28.5509 15.1667 28.1706 14.7876 27.7014 14.7876C27.2323 14.7876 26.8519 15.1667 26.8519 15.6344C26.8519 16.102 27.2323 16.4812 27.7014 16.4812Z" fill="white"/>
</g>
<defs>
<clipPath id="clip0_8_476">
<rect width="34" height="43" fill="white"/>
</clipPath>
</defs>
</svg>
