<svg width="86" height="68" viewBox="0 0 86 68" fill="none" xmlns="http://www.w3.org/2000/svg">
<path d="M52.2 65.5C45.5 65.5 45.2 61.6 45.2 61.4L44.6 54.7H48.4C49 54.7 49.4 54.3 49.4 53.7C49.4 53.1 49 52.7 48.4 52.7H3C2.4 52.7 2 52.3 2 51.7V45.8H44.9C45.5 45.8 45.9 45.4 45.9 44.8C45.9 44.2 45.5 43.8 44.9 43.8H2V3C2 2.4 2.4 2 3 2H73.8C74.4 2 74.8 2.4 74.8 3V20.8C74.8 21.4 75.2 21.8 75.8 21.8C76.4 21.8 76.8 21.4 76.8 20.8V3C76.8 1.3 75.5 0 73.8 0H3C1.3 0 0 1.3 0 3V51.7C0 53.4 1.3 54.7 3 54.7H32.3L31.7 61.5C31.7 61.7 31.4 65.5 24.7 65.5C24.1 65.5 23.7 65.9 23.7 66.5C23.7 67.1 24.1 67.5 24.7 67.5H52.2C52.8 67.5 53.2 67.1 53.2 66.5C53.2 65.9 52.7 65.5 52.2 65.5ZM31.5 65.5C33.6 63.8 33.7 61.6 33.7 61.6L34.3 54.7H42.5L43.1 61.6C43.1 61.6 43.2 63.8 45.3 65.6H31.5V65.5ZM75.1 34.6L64.4 47.2L57.4 41.6C57 41.3 56.3 41.3 56 41.8C55.7 42.2 55.7 42.9 56.2 43.2L64 49.4C64.2 49.5 64.4 49.6 64.6 49.6C64.9 49.6 65.2 49.5 65.4 49.2L76.7 35.8C77.1 35.4 77 34.7 76.6 34.4C76.1 34.1 75.4 34.2 75.1 34.6ZM67 22.8C56.8 22.8 48.6 31.1 48.6 41.2C48.6 51.3 56.8 59.7 67 59.7C77.2 59.7 85.4 51.4 85.4 41.3C85.4 31.1 77.1 22.8 67 22.8ZM67 57.7C57.9 57.7 50.6 50.3 50.6 41.3C50.6 32.2 58 24.9 67 24.9C76 24.9 83.4 32.3 83.4 41.3C83.4 50.3 76 57.7 67 57.7Z" fill="white"/>
</svg>
