<svg width="47" height="48" viewBox="0 0 47 48" fill="none" xmlns="http://www.w3.org/2000/svg">
<circle cx="23.7443" cy="23.9312" r="23.2307" fill="#E6E6E6"/>
<path d="M23.9127 25.1043C21.7563 25.1043 20.0074 23.3554 20.0074 21.199C20.0074 19.0426 21.7563 17.2937 23.9127 17.2937C26.0691 17.2937 27.818 19.0426 27.818 21.199C27.818 23.3554 26.0691 25.1043 23.9127 25.1043ZM23.9127 18.3125C22.3166 18.3125 21.0262 19.6029 21.0262 21.199C21.0262 22.7951 22.3166 24.0855 23.9127 24.0855C25.5088 24.0855 26.7992 22.7951 26.7992 21.199C26.7992 19.6029 25.5088 18.3125 23.9127 18.3125ZM17.6133 31.2169C17.5284 31.2169 17.4435 31.1999 17.3586 31.149C17.1209 31.0131 17.036 30.7075 17.1719 30.4528C18.5472 28.0417 21.1281 26.5306 23.9127 26.5306C26.6974 26.5306 29.2782 28.0417 30.6536 30.4528C30.7894 30.6905 30.7045 31.0131 30.4668 31.149C30.2291 31.2848 29.9065 31.1999 29.7707 30.9622C28.5821 28.8567 26.3408 27.5493 23.9127 27.5493C21.5016 27.5493 19.2603 28.8567 18.0548 30.9622C17.9699 31.132 17.8001 31.2169 17.6133 31.2169Z" fill="black"/>
</svg>
