<svg width="38" height="36" viewBox="0 0 38 36" fill="none" xmlns="http://www.w3.org/2000/svg">
<path d="M0.481491 36H37.5185C37.6507 36 37.7734 35.953 37.8584 35.859C37.9528 35.7651 38 35.6429 38 35.5208C38 35.3892 37.9528 35.2764 37.8584 35.1825C37.764 35.0885 37.6412 35.0415 37.5185 35.0415H33.4306V10.9005C33.4306 10.7784 33.3834 10.6562 33.2889 10.5623C33.1945 10.4683 33.0718 10.4213 32.9491 10.4213H25.8211V0.479248C25.8211 0.216132 25.604 0 25.3396 0H3.83304C3.5687 0 3.35155 0.216132 3.35155 0.479248V35.0415H0.481491C0.217143 35.0415 0 35.2576 0 35.5208C0 35.7839 0.217143 36 0.481491 36ZM32.4676 11.3798V35.0509H17.2581V11.3798H32.4676ZM4.31453 0.958496H24.8581V10.4213H16.7766C16.5123 10.4213 16.2952 10.6374 16.2952 10.9005V35.0509H4.31453V0.958496ZM6.6559 4.64213C6.6559 4.37901 6.87304 4.16288 7.13739 4.16288H22.1014C22.3657 4.16288 22.5829 4.37901 22.5829 4.64213C22.5829 4.90525 22.3657 5.12138 22.1014 5.12138H7.13739C7.01466 5.12138 6.89193 5.07439 6.79752 4.98042C6.71255 4.89585 6.6559 4.77369 6.6559 4.64213ZM6.6559 8.58888C6.6559 8.32576 6.87304 8.10963 7.13739 8.10963H22.1014C22.3657 8.10963 22.5829 8.32576 22.5829 8.58888C22.5829 8.852 22.3657 9.06813 22.1014 9.06813H7.13739C6.87304 9.06813 6.6559 8.852 6.6559 8.58888ZM14.2087 12.5356C14.2087 12.7987 13.9916 13.0149 13.7272 13.0149H7.13739C6.87304 13.0149 6.6559 12.7987 6.6559 12.5356C6.6559 12.2725 6.87304 12.0564 7.13739 12.0564H13.7272C13.9916 12.0564 14.2087 12.2725 14.2087 12.5356ZM14.2087 16.4824C14.2087 16.7455 13.9916 16.9616 13.7272 16.9616H7.13739C6.87304 16.9616 6.6559 16.7455 6.6559 16.4824C6.6559 16.2193 6.87304 16.0031 7.13739 16.0031H13.7272C13.9916 16.0031 14.2087 16.2193 14.2087 16.4824ZM20.0432 15.7588V13.8982C20.0432 13.6351 20.2604 13.419 20.5247 13.419C20.7891 13.419 21.0062 13.6351 21.0062 13.8982V15.7588C21.0062 16.0219 20.7891 16.2381 20.5247 16.2381C20.2604 16.2381 20.0432 16.0219 20.0432 15.7588ZM24.5183 15.7588V13.8982C24.5183 13.6351 24.7354 13.419 24.9998 13.419C25.2641 13.419 25.4812 13.6351 25.4812 13.8982V15.7588C25.4812 16.0219 25.2641 16.2381 24.9998 16.2381C24.7354 16.2381 24.5183 16.0219 24.5183 15.7588ZM28.9839 15.7588V13.8982C28.9839 13.6351 29.201 13.419 29.4653 13.419C29.7297 13.419 29.9468 13.6351 29.9468 13.8982V15.7588C29.9468 16.0219 29.7297 16.2381 29.4653 16.2381C29.201 16.2381 28.9839 16.0219 28.9839 15.7588ZM20.0432 20.4949V18.6343C20.0432 18.3712 20.2604 18.1551 20.5247 18.1551C20.7891 18.1551 21.0062 18.3712 21.0062 18.6343V20.4949C21.0062 20.758 20.7891 20.9742 20.5247 20.9742C20.2604 20.9742 20.0432 20.758 20.0432 20.4949ZM24.5183 20.4949V18.6343C24.5183 18.3712 24.7354 18.1551 24.9998 18.1551C25.2641 18.1551 25.4812 18.3712 25.4812 18.6343V20.4949C25.4812 20.758 25.2641 20.9742 24.9998 20.9742C24.7354 20.9742 24.5183 20.758 24.5183 20.4949ZM28.9839 20.4949V18.6343C28.9839 18.3712 29.201 18.1551 29.4653 18.1551C29.7297 18.1551 29.9468 18.3712 29.9468 18.6343V20.4949C29.9468 20.758 29.7297 20.9742 29.4653 20.9742C29.201 20.9742 28.9839 20.758 28.9839 20.4949ZM20.0432 25.231V23.3704C20.0432 23.1073 20.2604 22.8912 20.5247 22.8912C20.7891 22.8912 21.0062 23.1073 21.0062 23.3704V25.231C21.0062 25.4941 20.7891 25.7103 20.5247 25.7103C20.2604 25.7103 20.0432 25.4941 20.0432 25.231ZM24.5183 25.231V23.3704C24.5183 23.1073 24.7354 22.8912 24.9998 22.8912C25.2641 22.8912 25.4812 23.1073 25.4812 23.3704V25.231C25.4812 25.4941 25.2641 25.7103 24.9998 25.7103C24.7354 25.7103 24.5183 25.4941 24.5183 25.231ZM28.9839 25.231V23.3704C28.9839 23.1073 29.201 22.8912 29.4653 22.8912C29.7297 22.8912 29.9468 23.1073 29.9468 23.3704V25.231C29.9468 25.4941 29.7297 25.7103 29.4653 25.7103C29.201 25.7103 28.9839 25.4941 28.9839 25.231ZM20.0432 29.9671V28.1065C20.0432 27.8434 20.2604 27.6273 20.5247 27.6273C20.7891 27.6273 21.0062 27.8434 21.0062 28.1065V29.9671C21.0062 30.2302 20.7891 30.4464 20.5247 30.4464C20.2604 30.4464 20.0432 30.2302 20.0432 29.9671ZM24.5183 29.9671V28.1065C24.5183 27.8434 24.7354 27.6273 24.9998 27.6273C25.2641 27.6273 25.4812 27.8434 25.4812 28.1065V29.9671C25.4812 30.2302 25.2641 30.4464 24.9998 30.4464C24.7354 30.4464 24.5183 30.2302 24.5183 29.9671ZM28.9839 29.9671V28.1065C28.9839 27.8434 29.201 27.6273 29.4653 27.6273C29.7297 27.6273 29.9468 27.8434 29.9468 28.1065V29.9671C29.9468 30.2302 29.7297 30.4464 29.4653 30.4464C29.201 30.4464 28.9839 30.2302 28.9839 29.9671ZM14.2087 20.4291C14.2087 20.6922 13.9916 20.9084 13.7272 20.9084H7.13739C6.87304 20.9084 6.6559 20.6922 6.6559 20.4291C6.6559 20.166 6.87304 19.9499 7.13739 19.9499H13.7272C13.9916 19.9499 14.2087 20.166 14.2087 20.4291ZM14.2087 24.3759C14.2087 24.639 13.9916 24.8551 13.7272 24.8551H7.13739C6.87304 24.8551 6.6559 24.639 6.6559 24.3759C6.6559 24.1128 6.87304 23.8966 7.13739 23.8966H13.7272C13.9916 23.8966 14.2087 24.1128 14.2087 24.3759ZM14.2087 28.3226C14.2087 28.5857 13.9916 28.8019 13.7272 28.8019H7.13739C6.87304 28.8019 6.6559 28.5857 6.6559 28.3226C6.6559 28.0595 6.87304 27.8434 7.13739 27.8434H13.7272C13.9916 27.8434 14.2087 28.0595 14.2087 28.3226Z" fill="black"/>
</svg>
