<svg width="28" height="31" viewBox="0 0 28 31" fill="none" xmlns="http://www.w3.org/2000/svg">
<path d="M6.9608 8.08128C6.9608 10.7602 8.10443 13.5182 9.6472 16.4614L6.2729 16.5114C6.15983 16.5355 6.06462 16.6138 6.02296 16.7221L5.97638 16.704L5.97636 16.704C5.97634 16.7041 5.97631 16.7041 5.97629 16.7042L0.977987 29.517C0.977942 29.5172 0.977897 29.5173 0.977852 29.5174C0.929976 29.6353 0.943974 29.7732 1.01865 29.8831C1.09279 29.9923 1.20945 30.0561 1.34098 30.0495H26.6603C26.7901 30.0495 26.906 29.9871 26.9805 29.8844C27.0568 29.779 27.0695 29.6405 27.0224 29.518L27.0223 29.5177L22.0236 16.704L22.0236 16.704L22.0231 16.7026C21.9621 16.5586 21.8255 16.4614 21.6616 16.4614H18.3529C19.8956 13.5242 21.0391 10.7663 21.0392 8.08151C21.0572 4.07971 17.8928 0.95 14.0089 0.95C10.125 0.95 6.9608 4.0797 6.9608 8.08128ZM9.99046 17.0775C10.4649 17.9583 10.9681 18.8549 11.483 19.7721C12.2059 21.0602 12.9517 22.3891 13.673 23.7724L13.6735 23.7733C13.7417 23.8975 13.8715 23.9739 14.0089 23.9739C14.1464 23.9739 14.2761 23.8975 14.3444 23.7733L14.3448 23.7723C14.9693 22.5748 15.6146 21.4178 16.2469 20.2925C16.3252 20.1532 16.4033 20.0143 16.4811 19.876C17.0163 18.9244 17.539 17.995 18.0277 17.0832C18.1012 17.1791 18.2175 17.2349 18.3422 17.2298H21.4073L23.6058 22.8622H20.6679H20.6678H20.6677H20.6675H20.6674H20.6673H20.6672H20.6671H20.667H20.6669H20.6668H20.6667H20.6666H20.6665H20.6664H20.6663H20.6662H20.6661H20.666H20.6658H20.6657H20.6656H20.6655H20.6654H20.6653H20.6652H20.6651H20.665H20.6649H20.6648H20.6647H20.6646H20.6644H20.6643H20.6642H20.6641H20.664H20.6639H20.6638H20.6637H20.6636H20.6635H20.6634H20.6632H20.6631H20.663H20.6629H20.6628H20.6627H20.6626H20.6625H20.6624H20.6623H20.6621H20.662H20.6619H20.6618H20.6617H20.6616H20.6615H20.6614H20.6612H20.6611H20.661H20.6609H20.6608H20.6607H20.6606H20.6605H20.6603H20.6602H20.6601H20.66H20.6599H20.6598H20.6597H20.6596H20.6594H20.6593H20.6592H20.6591H20.659H20.6589H20.6588H20.6586H20.6585H20.6584H20.6583H20.6582H20.6581H20.658H20.6578H20.6577H20.6576H20.6575H20.6574H20.6573H20.6572H20.657H20.6569H20.6568H20.6567H20.6566H20.6565H20.6563H20.6562H20.6561H20.656H20.6559H20.6558H20.6556H20.6555H20.6554H20.6553H20.6552H20.6551H20.6549H20.6548H20.6547H20.6546H20.6545H20.6544H20.6542H20.6541H20.654H20.6539H20.6538H20.6537H20.6535H20.6534H20.6533H20.6532H20.6531H20.653H20.6528H20.6527H20.6526H20.6525H20.6524H20.6522H20.6521H20.652H20.6519H20.6518H20.6517H20.6515H20.6514H20.6513H20.6512H20.6511H20.6509H20.6508H20.6507H20.6506H20.6505H20.6503H20.6502H20.6501H20.65H20.6499H20.6497H20.6496H20.6495H20.6494H20.6493H20.6491H20.649H20.6489H20.6488H20.6487H20.6485H20.6484H20.6483H20.6482H20.6481H20.6479H20.6478H20.6477H20.6476H20.6475H20.6473H20.6472H20.6471H20.647H20.6469H20.6467H20.6466H20.6465H20.6464H20.6463H20.6461H20.646H20.6459H20.6458H20.6457H20.6455H20.6454H20.6453H20.6452H20.645H20.6449H20.6448H20.6447H20.6446H20.6444H20.6443H20.6442H20.6441H20.644H20.6438H20.6437H20.6436H20.6435H20.6433H20.6432H20.6431H20.643H20.6429H20.6427H20.6426H20.6425H20.6424H20.6423H20.6421H20.642H20.6419H20.6418H20.6416H20.6415H20.6414H20.6413H20.6412H20.641H20.6409H20.6408H20.6407H20.6405H20.6404H20.6403H20.6402H20.6401H20.6399H20.6398H20.6397H20.6396H20.6395H20.6393H20.6392H20.6391H20.639H20.6388H20.6387H20.6386H20.6385H20.6384H20.6382H20.6381H20.638H20.6379H20.6377H20.6376H20.6375H20.6374H20.6373H20.6371H20.637H20.6369H20.6368H20.6366H20.6365H20.6364H20.6363H20.6362H20.636H20.6359H20.6358H20.6357H20.6355H20.6354H20.6353H20.6352H20.6351H20.6349H20.6348H20.6347H20.6346H20.6344H20.6343H20.6342H20.6341H20.634H20.6338H20.6337H20.6336H20.6335H20.6334H20.6332H20.6331H20.633H20.6329H20.6327H20.6326H20.6325H20.6324H20.6323H20.6321H20.632H20.6319H20.6318H20.6317H20.6315H20.6314H20.6313H20.6312H20.631H20.6309H20.6308H20.6307H20.6306H20.6304H20.6303H20.6302H20.6301H20.63H20.6298H20.6297H20.6296H20.6295H20.6294H20.6292H20.6291H20.629H20.6289H20.6287H20.6286H20.6285H20.6284H20.6283H20.6281H20.628H20.6279H20.6278H20.6277H20.6275H20.6274H20.6273H20.6272H20.6271H20.6269H20.6268H20.6267H20.6266H20.6265H20.6264H20.6262H20.6261H20.626H20.6259H20.6258H20.6256H20.6255H20.6254H20.6253H20.6252H20.625H20.6249H20.6248H20.6247H20.6246H20.6244H20.6243H20.6242H20.6241H20.624H20.6239H20.6237H20.6236H20.6235H20.6234H20.6233H20.6231H20.623H20.6229H20.6228H20.6227H20.6226H20.6224H20.6223H20.6222H20.6221H20.622H20.6218H20.6217H20.6216H20.6215H20.6214H20.6213H20.6211H20.621H20.6209H20.6208H20.6207H20.6206H20.6204H20.6203H20.6202H20.6201H20.62H20.6199H20.6198H20.6196H20.6195H20.6194H20.6193H20.6192H20.6191H20.6189H20.6188H20.6187H20.6186H20.6185H20.6184H20.6183H20.6181H20.618H20.6179H20.6178H20.6177H20.6176H20.6175H20.6173H20.6172H20.6171H20.617H20.6169H20.6168H20.6167H20.6165H20.6164H20.6163H20.6162H20.6161H20.616H20.6159H20.6158H20.6156H20.6155H20.6154H20.6153H20.6152H20.6151H20.615H20.6149H20.6147H20.6146H20.6145H20.6144H20.6143H20.6142H20.6141H20.614H20.6139H20.6137H20.6136H20.6135H20.6134H20.6133H20.6132H20.6131H20.613H20.6129H20.6127H20.6126H20.6125H20.6124H20.6123H20.6122H20.6121H20.612H20.6119H20.6118H20.6117H20.6115H20.6114H20.6113H20.6112H20.6111H20.611H20.6109H20.6108H20.6107H20.6106H20.6105H20.6104H20.6103H20.6101H20.61H20.6099H20.6098H20.6097H20.6096H20.6095H20.6094H20.6093H20.6092H20.6091H20.609H20.6089H20.6088H20.6087H20.6086H20.6085H20.6084V22.862L20.6035 22.8625C20.392 22.8832 20.2346 23.0698 20.2551 23.2843C20.2754 23.4962 20.4578 23.6561 20.6702 23.6366H23.9007L26.0992 29.2691H14.3922V26.623C14.3986 26.5111 14.3502 26.4012 14.2691 26.3259C14.1862 26.2491 14.0701 26.2148 13.961 26.2286L13.9604 26.2287C13.7624 26.2564 13.6193 26.4289 13.6257 26.6283V29.2751H1.91275L4.11121 23.6427H7.34404C7.44718 23.6427 7.54227 23.6009 7.61592 23.5331L7.61596 23.5332L7.61763 23.5315C7.6919 23.4563 7.73323 23.3596 7.73323 23.2555C7.73323 23.1514 7.6919 23.0546 7.61763 22.9795C7.54176 22.9027 7.44513 22.8683 7.34404 22.8683H4.41208L6.61055 17.2358H9.67675C9.80165 17.2358 9.91741 17.1749 9.99046 17.0775ZM14.0089 1.72441C17.4861 1.72441 20.2906 4.48979 20.2906 8.08128C20.2906 10.201 19.4722 12.4656 18.2702 14.9193C17.5505 16.3883 16.6957 17.9208 15.7989 19.5285C15.2115 20.5816 14.6061 21.6669 14.0089 22.7877C13.4118 21.6669 12.8064 20.5816 12.219 19.5285C11.3222 17.9208 10.4673 16.3883 9.74769 14.9193C8.54563 12.4656 7.72728 10.201 7.72728 8.08128C7.72728 4.49578 10.5317 1.72441 14.0089 1.72441ZM14.0089 3.98484C12.3264 3.98484 10.9597 5.36864 10.9597 7.06967C10.9597 8.77071 12.3264 10.1545 14.0089 10.1545C15.6914 10.1545 17.0581 8.77071 17.0581 7.06967C17.0581 5.36864 15.6914 3.98484 14.0089 3.98484ZM14.0089 4.75924C15.2721 4.75924 16.2916 5.79006 16.2916 7.06967C16.2916 8.34928 15.2721 9.3801 14.0089 9.3801C12.7458 9.3801 11.7262 8.34928 11.7262 7.06967C11.7262 5.79006 12.7458 4.75924 14.0089 4.75924Z" fill="black" stroke="black" stroke-width="0.1"/>
</svg>
