<svg width="17" height="30" viewBox="0 0 17 30" fill="none" xmlns="http://www.w3.org/2000/svg">
<path fill-rule="evenodd" clip-rule="evenodd" d="M17 2.78036V27.2196C17 28.7558 15.88 30 14.4971 30H2.49714C1.12 29.9937 0 28.7495 0 27.2196V2.78036C0 1.24418 1.12 0 2.50286 0H14.5029C15.88 0 17 1.24418 17 2.78036ZM4.25143 1.11088H2.50286C1.67429 1.11088 1 1.85992 1 2.78036V27.2196C1 28.1401 1.67429 28.8891 2.50286 28.8891H14.5029C15.3314 28.8891 16.0057 28.1401 16.0057 27.2196V2.78036C16.0057 1.85992 15.3314 1.11088 14.5029 1.11088H12.7486L12.2229 1.87897C12.08 2.0821 12.0057 2.33601 12.0057 2.59628V2.8248C12.0057 3.14854 11.8914 3.45959 11.6857 3.68811C11.48 3.91663 11.2 4.04359 10.9086 4.04359H6.10857C5.81714 4.04359 5.53714 3.91663 5.33143 3.68811C5.12571 3.45959 5.01143 3.14854 5.01143 2.8248V2.59628C5.01143 2.33601 4.93714 2.0821 4.79429 1.87897L4.25143 1.11088ZM11.4857 1.11088H5.51429C6.01143 1.77105 6 2.36775 6 2.8248C6 2.85019 6.01143 2.88193 6.02857 2.90097C6.04571 2.92002 6.07429 2.93271 6.09714 2.93271H10.8971C10.9257 2.93271 10.9486 2.92002 10.9657 2.90097C10.9829 2.88193 10.9943 2.85019 10.9943 2.8248C11 2.28523 11.0171 1.7774 11.4857 1.11088ZM5.49714 27.7719C5.22286 27.7719 4.99429 27.5243 4.99429 27.2133C4.99429 26.9022 5.21714 26.6547 5.49714 26.6547H11.4971C11.7714 26.6547 12 26.9022 12 27.2133C12 27.5243 11.7771 27.7719 11.4971 27.7719H5.49714Z" fill="black"/>
</svg>
