<svg width="103" height="102" viewBox="0 0 103 102" fill="none" xmlns="http://www.w3.org/2000/svg">
<path d="M59.0801 1.823C83.0384 5.62957 100.727 26.2299 100.727 50.4128C100.727 77.5067 78.7841 99.4504 51.6911 99.4504C24.598 99.4504 2.65486 77.5067 2.65486 50.4128C2.65486 50.1889 2.65486 49.965 2.65486 49.7411" stroke="white" stroke-width="1.26997" stroke-miterlimit="22.9256"/>
<path fill-rule="evenodd" clip-rule="evenodd" d="M51.6912 75.9395C65.3496 75.9395 76.5451 64.7437 76.5451 51.0848C76.5451 37.4259 65.3496 26.2301 51.6912 26.2301C38.0327 26.2301 26.8372 37.4259 26.8372 51.0848C26.8372 64.7437 38.0327 75.9395 51.6912 75.9395Z" fill="#106EAF"/>
<path fill-rule="evenodd" clip-rule="evenodd" d="M62.6627 52.4281L54.378 57.1304L45.8695 62.0565V52.4281V42.5758L54.378 47.502L62.6627 52.4281Z" fill="white"/>
<path d="M77.4406 75.9393C70.7233 82.8807 61.3191 86.6872 51.691 86.6872C31.763 86.6872 15.4176 70.5653 15.4176 50.4128C15.4176 30.2604 31.5391 14.1384 51.691 14.1384C65.1256 14.1384 77.2167 21.5277 83.7101 33.1713" stroke="#D1D0D0" stroke-width="0.423295" stroke-miterlimit="22.9256"/>
</svg>
