<svg width="92" height="88" viewBox="0 0 92 88" fill="none" xmlns="http://www.w3.org/2000/svg">
<g clip-path="url(#clip0_107_2585)">
<path d="M52.4542 1.36584C74.0058 4.68292 89.9177 22.6341 89.9177 43.7073C89.9177 67.3171 70.1789 86.439 45.8075 86.439C21.4361 86.439 1.69727 67.3171 1.69727 43.7073C1.69727 43.5122 1.69727 43.3171 1.69727 43.1219" stroke="white" stroke-width="1.5001" stroke-miterlimit="22.9256"/>
<path fill-rule="evenodd" clip-rule="evenodd" d="M45.8074 65.9512C58.0939 65.9512 68.1647 56.1951 68.1647 44.2927C68.1647 32.3903 58.0939 22.6342 45.8074 22.6342C33.521 22.6342 23.4502 32.3903 23.4502 44.2927C23.4502 56.1951 33.521 65.9512 45.8074 65.9512Z" fill="#FFD700"/>
<path fill-rule="evenodd" clip-rule="evenodd" d="M55.6766 45.4634L48.2241 49.561L40.5703 53.8537V45.4634V36.8781L48.2241 41.1707L55.6766 45.4634Z" fill="black"/>
<path d="M68.9701 65.9512C62.9276 72 54.4681 75.317 45.8072 75.317C27.8811 75.317 13.1777 61.2683 13.1777 43.7073C13.1777 26.1463 27.6797 12.0975 45.8072 12.0975C57.8922 12.0975 68.7687 18.5366 74.6098 28.6829" stroke="#D1D0D0" stroke-width="0.5" stroke-miterlimit="22.9256"/>
</g>
<defs>
<clipPath id="clip0_107_2585">
<rect width="91.4431" height="88" fill="white" transform="translate(0.0859375)"/>
</clipPath>
</defs>
</svg>
