<svg width="29" height="29" viewBox="0 0 29 29" fill="none" xmlns="http://www.w3.org/2000/svg">
<path d="M14.2154 28.5424C22.0386 28.5424 28.3806 22.2004 28.3806 14.3772C28.3806 6.55392 22.0386 0.211914 14.2154 0.211914C6.39211 0.211914 0.0501099 6.55392 0.0501099 14.3772C0.0501099 22.2004 6.39211 28.5424 14.2154 28.5424Z" fill="url(#paint0_linear_70_511)"/>
<path d="M28.3827 14.3774C28.3827 22.2012 22.0414 28.5426 14.2175 28.5426C9.84426 28.5426 5.93127 26.5596 3.33109 23.4462C5.78705 25.4949 8.94926 26.7272 12.402 26.7272C20.2259 26.7272 26.5673 20.3858 26.5673 12.5619C26.5673 9.11126 25.3351 5.94693 23.2863 3.49097C26.3997 6.09327 28.3827 10.0041 28.3827 14.3774Z" fill="url(#paint1_linear_70_511)"/>
<path d="M10.9259 3.13043C10.6311 3.04983 10.3427 3.02226 10.05 3.00317C9.76366 3.00317 9.47947 3.0265 9.19739 3.06468C8.91956 3.1177 8.64597 3.18769 8.37662 3.2704C8.10939 3.36372 7.85064 3.47825 7.60038 3.6055C7.3586 3.74548 7.12955 3.90878 6.9111 4.08482C6.70113 4.27145 6.50389 4.47293 6.30453 4.66805C6.11789 4.87802 5.92914 5.08374 5.76795 5.3128C5.61737 5.55245 5.49012 5.8112 5.36287 6.06146C5.24622 6.32233 5.13169 6.57259 4.98535 6.79528C4.85174 7.02858 4.69904 7.24278 4.5124 7.43366C4.33849 7.63302 4.12004 7.80481 3.88462 7.9766C3.66829 8.159 3.42864 8.33503 3.24412 8.54924C3.06385 8.76556 2.93023 9.00946 2.83055 9.26821C2.73936 9.5312 2.66513 9.79843 2.61635 10.072C2.58029 10.3499 2.5612 10.634 2.57605 10.9182C2.60786 11.2088 2.65876 11.4972 2.77753 11.7899L2.96417 11.8323C3.21231 11.6266 3.3947 11.4188 3.55801 11.2088C3.73404 11.0052 3.8825 10.7995 4.00975 10.5895C4.14973 10.3859 4.27698 10.1802 4.38303 9.96597C4.50392 9.75813 4.6036 9.54392 4.65026 9.2979C4.716 9.06249 4.74145 8.79738 4.78175 8.53227C4.82841 8.2714 4.90052 8.01902 5.01292 7.78997C5.13593 7.5694 5.30348 7.37852 5.48163 7.20249C5.67251 7.03494 5.90157 6.90345 6.12426 6.77619C6.36179 6.66167 6.60145 6.55774 6.81566 6.43473C7.04259 6.32657 7.24195 6.19296 7.44556 6.06358C7.65764 5.94693 7.86761 5.83453 8.06909 5.71152C8.28118 5.60335 8.48054 5.48034 8.6693 5.33825C8.86654 5.21099 9.05317 5.06465 9.23769 4.90771C9.43069 4.76773 9.61944 4.60867 9.80608 4.439C10.0012 4.28418 10.1921 4.11239 10.3851 3.91939C10.5823 3.73911 10.7817 3.55036 10.9768 3.30858L10.9259 3.13043Z" fill="url(#paint2_linear_70_511)"/>
<path d="M17.4985 7.14941H10.752C8.67777 7.14941 6.98956 8.83762 6.98956 10.9118V17.6583C6.98956 19.7325 8.67777 21.4207 10.752 21.4207H17.4985C19.5727 21.4207 21.2609 19.7325 21.2609 17.6583V10.9118C21.2609 8.83762 19.5727 7.14941 17.4985 7.14941ZM19.9629 17.6583C19.9629 19.0178 18.8579 20.1227 17.4985 20.1227H10.752C9.3925 20.1227 8.28753 19.0178 8.28753 17.6583V10.9118C8.28753 9.55236 9.3925 8.44738 10.752 8.44738H17.4985C18.8579 8.44738 19.9629 9.55236 19.9629 10.9118V17.6583Z" fill="white"/>
<path d="M14.1263 10.3921C11.98 10.3921 10.2345 12.1376 10.2345 14.2839C10.2345 16.4302 11.98 18.1757 14.1263 18.1757C16.2726 18.1757 18.0181 16.4302 18.0181 14.2839C18.0181 12.1376 16.2726 10.3921 14.1263 10.3921ZM14.1263 16.8798C12.6947 16.8798 11.5325 15.7155 11.5325 14.286C11.5325 12.8544 12.6969 11.6922 14.1263 11.6922C15.5579 11.6922 16.7201 12.8565 16.7201 14.286C16.7201 15.7155 15.5558 16.8798 14.1263 16.8798Z" fill="white"/>
<path d="M17.9226 9.67554C17.4751 9.67554 17.1125 10.0382 17.1125 10.4857C17.1125 10.9332 17.4751 11.2959 17.9226 11.2959C18.3701 11.2959 18.7328 10.9332 18.7328 10.4857C18.7349 10.0382 18.3723 9.67554 17.9226 9.67554Z" fill="white"/>
<defs>
<linearGradient id="paint0_linear_70_511" x1="4.19929" y1="24.395" x2="24.2332" y2="4.36109" gradientUnits="userSpaceOnUse">
<stop stop-color="#FEDA77"/>
<stop offset="0.25" stop-color="#F58529"/>
<stop offset="0.5" stop-color="#DD2A7B"/>
<stop offset="0.75" stop-color="#8134AF"/>
<stop offset="1" stop-color="#515BD4"/>
</linearGradient>
<linearGradient id="paint1_linear_70_511" x1="8.7524" y1="28.9511" x2="28.7891" y2="8.9144" gradientUnits="userSpaceOnUse">
<stop stop-color="#ECCB6F"/>
<stop offset="0.25" stop-color="#E37B26"/>
<stop offset="0.5" stop-color="#CB2771"/>
<stop offset="0.75" stop-color="#742F9D"/>
<stop offset="1" stop-color="#4A53C2"/>
</linearGradient>
<linearGradient id="paint2_linear_70_511" x1="-2.38063" y1="15.2787" x2="16.921" y2="-4.02289" gradientUnits="userSpaceOnUse">
<stop stop-color="#FEE293"/>
<stop offset="0.25" stop-color="#F59445"/>
<stop offset="0.5" stop-color="#DD4389"/>
<stop offset="0.75" stop-color="#8948AF"/>
<stop offset="1" stop-color="#6971D4"/>
</linearGradient>
</defs>
</svg>
