<svg width="29" height="29" viewBox="0 0 29 29" fill="none" xmlns="http://www.w3.org/2000/svg">
<path d="M14.6646 28.9668C22.4878 28.9668 28.8298 22.6247 28.8298 14.8015C28.8298 6.97823 22.4878 0.63623 14.6646 0.63623C6.84133 0.63623 0.499329 6.97823 0.499329 14.8015C0.499329 22.6247 6.84133 28.9668 14.6646 28.9668Z" fill="#0088CC"/>
<path d="M28.832 14.8014C28.832 22.6253 22.4906 28.9667 14.6667 28.9667C10.2935 28.9667 6.38048 26.9837 3.7803 23.8703C6.23627 25.919 9.39848 27.1512 12.8512 27.1512C20.6751 27.1512 27.0165 20.8099 27.0165 12.986C27.0165 9.53533 25.7843 6.371 23.7355 3.91504C26.849 6.51734 28.832 10.4282 28.832 14.8014Z" fill="#007CBA"/>
<path d="M11.3794 3.56719C11.0846 3.4866 10.7962 3.45903 10.5035 3.43994C10.2172 3.43994 9.93297 3.46327 9.6509 3.50145C9.37306 3.55447 9.09947 3.62446 8.83012 3.70717C8.56501 3.80049 8.30839 3.91502 8.05601 4.04227C7.81423 4.18224 7.58517 4.34555 7.36673 4.52158C7.15676 4.70822 6.95952 4.9097 6.76016 5.10482C6.57352 5.31479 6.38476 5.52051 6.22358 5.74956C6.073 5.98922 5.94575 6.24797 5.81849 6.49823C5.70185 6.7591 5.58732 7.00936 5.44098 7.23205C5.30737 7.46534 5.15466 7.67955 4.96803 7.87043C4.79412 8.06979 4.57567 8.24158 4.34025 8.41337C4.12392 8.59576 3.88426 8.7718 3.69975 8.986C3.51948 9.20233 3.38586 9.44623 3.28618 9.70498C3.19498 9.96796 3.12075 10.2352 3.07197 10.5088C3.03592 10.7866 3.01683 11.0708 3.03168 11.355C3.06349 11.6456 3.11439 11.934 3.23316 12.2267L3.4198 12.2691C3.66794 12.0634 3.85033 11.8555 4.01364 11.6456C4.18967 11.442 4.33813 11.2362 4.46538 11.0263C4.60536 10.8227 4.73261 10.6169 4.83865 10.4027C4.95954 10.1949 5.05922 9.98069 5.10588 9.73467C5.17163 9.49925 5.19708 9.23415 5.23738 8.96904C5.28404 8.70817 5.35615 8.45579 5.46855 8.22673C5.59156 8.00616 5.75911 7.81529 5.93726 7.63925C6.12814 7.47171 6.35719 7.34021 6.57988 7.21296C6.81742 7.09843 7.05708 6.99451 7.27129 6.8715C7.49822 6.76334 7.69758 6.62972 7.90118 6.50035C8.11327 6.3837 8.32324 6.2713 8.52472 6.14829C8.7368 6.04012 8.93617 5.91711 9.12492 5.77501C9.32216 5.64776 9.5088 5.50142 9.69331 5.34448C9.88631 5.2045 10.0751 5.04544 10.2617 4.87577C10.4568 4.72094 10.6477 4.54915 10.8407 4.35616C11.0379 4.17588 11.2373 3.98712 11.4324 3.74535L11.3794 3.56719Z" fill="#1890CC"/>
<path d="M21.3644 9.633C21.3644 9.67329 21.3623 9.71571 21.3559 9.76025L19.6741 20.091C19.6296 20.3625 19.4726 20.6021 19.2436 20.7527C18.917 20.9648 18.4949 20.9605 18.1704 20.7442L13.4409 17.5672C13.0994 17.3381 13.057 16.8503 13.356 16.5661L17.7102 12.4198C17.7993 12.335 17.8183 12.2014 17.7568 12.0953C17.6805 11.9638 17.5087 11.9235 17.3836 12.0084L11.5957 15.8132C10.9489 16.2374 10.1472 16.3498 9.40911 16.1186L7.22462 15.4336C6.99557 15.3615 6.83862 15.1494 6.83862 14.9097C6.83862 14.7994 6.87044 14.6955 6.92982 14.6064C6.98708 14.5195 7.07192 14.4474 7.1716 14.4049L20.1831 8.8504C20.5182 8.7083 20.9063 8.79526 21.1481 9.06885C21.2902 9.22367 21.3644 9.42515 21.3644 9.633Z" fill="white"/>
</svg>
