<svg width="29" height="29" viewBox="0 0 29 29" fill="none" xmlns="http://www.w3.org/2000/svg">
<path d="M14.7661 28.3305C22.5893 28.3305 28.9314 21.9885 28.9314 14.1653C28.9314 6.342 22.5893 0 14.7661 0C6.94283 0 0.60083 6.342 0.60083 14.1653C0.60083 21.9885 6.94283 28.3305 14.7661 28.3305Z" fill="#008AFD"/>
<path d="M28.9335 14.1652C28.9335 21.9891 22.5921 28.3305 14.7682 28.3305C10.395 28.3305 6.48202 26.3475 3.88184 23.234C6.3378 25.2828 9.50001 26.515 12.9528 26.515C20.7766 26.515 27.118 20.1736 27.118 12.3498C27.118 8.8991 25.8858 5.73477 23.8371 3.27881C26.9505 5.88111 28.9335 9.79199 28.9335 14.1652Z" fill="#0080EB"/>
<path d="M11.4766 2.93121C11.1818 2.85061 10.8934 2.82304 10.6007 2.80396C10.3144 2.80396 10.0302 2.82728 9.74813 2.86546C9.47029 2.91848 9.1967 2.98847 8.92735 3.07118C8.66224 3.1645 8.40562 3.27903 8.15324 3.40628C7.91146 3.54626 7.6824 3.70956 7.46395 3.8856C7.25399 4.07223 7.05675 4.27371 6.85739 4.46883C6.67075 4.6788 6.48199 4.88452 6.32081 5.11358C6.17023 5.35324 6.04297 5.61198 5.91572 5.86224C5.79908 6.12311 5.68455 6.37337 5.53821 6.59606C5.40459 6.82936 5.25189 7.04356 5.06526 7.23444C4.89134 7.4338 4.6729 7.60559 4.43748 7.77738C4.22115 7.95978 3.98149 8.13581 3.79698 8.35002C3.6167 8.56635 3.48309 8.81025 3.38341 9.06899C3.29221 9.33198 3.21798 9.59921 3.1692 9.8728C3.13315 10.1506 3.11406 10.4348 3.12891 10.719C3.16072 11.0096 3.21162 11.298 3.33039 11.5907L3.51702 11.6331C3.76517 11.4274 3.94756 11.2195 4.11087 11.0096C4.2869 10.806 4.43536 10.6003 4.56261 10.3903C4.70259 10.1867 4.82984 9.98096 4.93588 9.76676C5.05677 9.55891 5.15645 9.3447 5.20311 9.09868C5.26886 8.86327 5.29431 8.59816 5.33461 8.33305C5.38126 8.07218 5.45337 7.8198 5.56578 7.59075C5.68879 7.37018 5.85634 7.1793 6.03449 7.00327C6.22537 6.83572 6.45442 6.70423 6.67711 6.57697C6.91465 6.46245 7.15431 6.35853 7.36852 6.23552C7.59545 6.12735 7.79481 5.99374 7.99841 5.86436C8.2105 5.74772 8.42046 5.63531 8.62195 5.5123C8.83403 5.40414 9.03339 5.28113 9.22215 5.13903C9.41939 5.01178 9.60603 4.86544 9.79054 4.70849C9.98354 4.56852 10.1723 4.40945 10.3589 4.23978C10.5541 4.08496 10.7449 3.91317 10.9379 3.72017C11.1352 3.5399 11.3345 3.35114 11.5297 3.10936L11.4766 2.93121Z" fill="#1F98FD"/>
<path d="M21.905 18.3624C21.2645 16.9499 19.975 15.7941 19.1542 15.0645C18.9782 14.9076 18.957 14.6403 19.1097 14.4579C20.0089 13.3805 20.8488 12.038 21.6886 10.5343C21.8519 10.2438 21.6399 9.88535 21.3069 9.88535H19.0142C18.028 11.6414 16.8891 13.4866 16.1659 14.1165C15.9538 14.301 15.6208 14.1525 15.6208 13.8705V10.5619V10.2141C15.6208 10.0338 15.4745 9.88535 15.2921 9.88535H12.4798C12.1935 9.88535 12.0408 10.2289 12.2402 10.4368C12.255 10.4537 12.2699 10.4686 12.2847 10.4855C12.658 10.897 12.8552 11.4378 12.8552 11.9935V14.5512C12.8552 14.7909 12.6071 14.9479 12.3908 14.8482C11.0525 14.2352 10.1108 12.0423 9.41731 10.0296C9.38761 9.94049 9.3049 9.8811 9.21158 9.8811H6.93589C6.74289 9.8811 6.59019 10.0487 6.60928 10.2395C6.68987 11.0815 6.9062 11.9044 7.21585 12.6913C8.25083 15.3063 10.3865 17.9701 13.2031 18.7209C13.6781 18.8481 15.6187 19.3444 15.6187 18.4452V16.6212C16.0493 15.4547 17.6505 17.3572 19.1415 18.9733H21.502C21.8222 18.9775 22.0365 18.6509 21.905 18.3624Z" fill="white"/>
</svg>
