<svg width="29" height="29" viewBox="0 0 29 29" fill="none" xmlns="http://www.w3.org/2000/svg">
<path d="M14.1653 28.3305C21.9885 28.3305 28.3305 21.9885 28.3305 14.1653C28.3305 6.342 21.9885 0 14.1653 0C6.342 0 0 6.342 0 14.1653C0 21.9885 6.342 28.3305 14.1653 28.3305Z" fill="#FF0000"/>
<path d="M28.3326 14.1652C28.3326 21.9891 21.9912 28.3305 14.1673 28.3305C9.79412 28.3305 5.88113 26.3475 3.28094 23.234C5.73691 25.2828 8.89912 26.515 12.3519 26.515C20.1758 26.515 26.5171 20.1736 26.5171 12.3498C26.5171 8.8991 25.2849 5.73477 23.2362 3.27881C26.3496 5.88111 28.3326 9.79199 28.3326 14.1652Z" fill="#ED0000"/>
<path d="M10.8715 2.91827C10.5767 2.83767 10.2883 2.8101 9.99561 2.79102C9.70929 2.79102 9.4251 2.81435 9.14302 2.85252C8.86519 2.90554 8.5916 2.97553 8.32225 3.05824C8.05714 3.15156 7.80052 3.26609 7.54813 3.39334C7.30635 3.53332 7.0773 3.69663 6.85885 3.87266C6.64889 4.05929 6.45165 4.26078 6.25228 4.45589C6.06565 4.66586 5.87689 4.87158 5.71571 5.10064C5.56512 5.3403 5.43787 5.59904 5.31062 5.8493C5.19397 6.11017 5.07945 6.36043 4.93311 6.58312C4.79949 6.81642 4.64679 7.03063 4.46015 7.2215C4.28624 7.42086 4.06779 7.59265 3.83238 7.76444C3.61605 7.94684 3.37639 8.12287 3.19188 8.33708C3.0116 8.55341 2.87799 8.79731 2.77831 9.05605C2.68711 9.31904 2.61288 9.58627 2.5641 9.85986C2.52804 10.1377 2.50896 10.4219 2.5238 10.7061C2.55562 10.9966 2.60652 11.2851 2.72529 11.5778L2.91192 11.6202C3.16006 11.4145 3.34246 11.2066 3.50576 10.9966C3.6818 10.793 3.83026 10.5873 3.95751 10.3774C4.09749 10.1737 4.22474 9.96802 4.33078 9.75382C4.45167 9.54597 4.55135 9.33176 4.59801 9.08574C4.66376 8.85033 4.68921 8.58522 4.7295 8.32011C4.77616 8.05925 4.84827 7.80686 4.96068 7.57781C5.08369 7.35724 5.25124 7.16636 5.42939 6.99033C5.62027 6.82278 5.84932 6.69129 6.07201 6.56404C6.30955 6.44951 6.54921 6.34559 6.76341 6.22258C6.99035 6.11441 7.18971 5.9808 7.39331 5.85142C7.6054 5.73478 7.81536 5.62237 8.01684 5.49936C8.22893 5.3912 8.42829 5.26819 8.61705 5.12609C8.81429 4.99884 9.00093 4.8525 9.18544 4.69555C9.37844 4.55558 9.5672 4.39651 9.75383 4.22684C9.94895 4.07202 10.1398 3.90023 10.3328 3.70723C10.5301 3.52696 10.7294 3.3382 10.9246 3.09642L10.8715 2.91827Z" fill="#FF2E2E"/>
<path d="M21.8958 11.7157L21.8661 11.0773C21.8046 9.77931 20.7611 8.74645 19.4631 8.69555L15.8216 8.55133C14.6339 8.50467 13.4441 8.50043 12.2543 8.54073L8.62765 8.65737C7.32332 8.69979 6.27137 9.7369 6.20986 11.0412L6.17805 11.7263C6.10382 13.2872 6.10382 14.8524 6.17805 16.4134L6.20986 17.0984C6.27137 18.4028 7.32332 19.4399 8.62765 19.4823L12.4155 19.6053C13.495 19.6413 14.5767 19.6413 15.6583 19.6053L19.4462 19.4823C20.7505 19.4399 21.8025 18.4028 21.864 17.0984L21.8958 16.4261C21.97 14.8567 21.97 13.2851 21.8958 11.7157ZM12.441 16.371V11.6732L16.4812 14.0719L12.441 16.371Z" fill="white"/>
</svg>
