<svg width="108" height="68" viewBox="0 0 108 68" fill="none" xmlns="http://www.w3.org/2000/svg">
<path d="M101.441 0.00476539C103.442 -0.0629113 105.871 3.87464 107.6 9.35645C104.116 9.35645 100.631 9.35645 97.1435 9.35645C97.1539 8.18749 97.329 6.43712 98.191 4.38222C98.9616 2.55341 100.004 0.0539848 101.441 0.00476539Z" fill="#FEBC59"/>
<path d="M6.15963 0.00476539C4.15866 -0.0629113 1.72929 3.87464 0 9.35645C3.48471 9.35645 6.96942 9.35645 10.4567 9.35645C10.4463 8.18749 10.2713 6.43712 9.40924 4.38222C8.64124 2.55341 7.59897 0.0539848 6.15963 0.00476539Z" fill="#FEBC59"/>
<path d="M101 0.00567517C100.83 0.00141889 100.656 0 100.476 0C100.301 0 100.134 0.00141859 99.9725 0.00425611H54.242H52.758H7.02753C6.86584 0.00141859 6.69632 0 6.5242 0C6.34425 0 6.16952 0.00283765 6 0.00567517C6.70415 0.751944 7.19444 1.37904 7.50479 1.80041C9.75285 4.85358 10.2379 7.4641 10.2301 8.70977C10.2275 9.24465 10.2249 9.7781 10.2197 10.313H10.2301V45.2911H10.2249V66.4292C10.2249 67.9516 13.8239 68.5843 15.4382 67.3387C24.5504 60.3129 38.503 54.0959 53.1962 53.981C68.3458 53.8618 82.327 60.1058 91.5488 67.2989C93.1527 68.5503 96.7673 67.9189 96.7673 66.3938V50.2057V45.2925V10.3144H96.7777C96.7751 9.77952 96.7725 9.24465 96.7673 8.71119C96.7595 7.46552 97.2445 4.855 99.4926 1.80183C99.8056 1.38045 100.296 0.751944 101 0.00567517Z" fill="#FFD700"/>
</svg>
